<?xml version="1.0" encoding="UTF-8" standalone="no"?>
<svg
   width="512"
   height="512"
   enable-background="new"
   version="1.0"
   id="svg25"
   sodipodi:docname="adobe-flash.svg"
   inkscape:version="1.1 (c68e22c387, 2021-05-23)"
   xmlns:inkscape="http://www.inkscape.org/namespaces/inkscape"
   xmlns:sodipodi="http://sodipodi.sourceforge.net/DTD/sodipodi-0.dtd"
   xmlns="http://www.w3.org/2000/svg"
   xmlns:svg="http://www.w3.org/2000/svg">
  <sodipodi:namedview
     id="namedview27"
     pagecolor="#ffffff"
     bordercolor="#666666"
     borderopacity="1.0"
     inkscape:pageshadow="2"
     inkscape:pageopacity="0.0"
     inkscape:pagecheckerboard="0"
     showgrid="false"
     inkscape:zoom="0.85546875"
     inkscape:cx="256"
     inkscape:cy="256"
     inkscape:window-width="1366"
     inkscape:window-height="706"
     inkscape:window-x="0"
     inkscape:window-y="0"
     inkscape:window-maximized="1"
     inkscape:current-layer="svg25" />
  <defs
     id="defs5">
    <filter
       id="a"
       x="-0.024"
       y="-0.024"
       width="1.048"
       height="1.048"
       color-interpolation-filters="sRGB">
      <feGaussianBlur
         stdDeviation="4.48"
         id="feGaussianBlur2" />
    </filter>
  </defs>
  <g
     transform="translate(0,212)"
     id="g23">
    <g
       transform="translate(-208,16)"
       enable-background="new"
       id="g21">
      <g
         id="g13">
        <rect
           transform="matrix(0,-1,-1,0,0,0)"
           x="-254"
           y="-688"
           width="448"
           height="448"
           rx="36"
           ry="36"
           enable-background="new"
           opacity=".2"
           id="rect7" />
        <rect
           transform="matrix(0,-1,-1,0,0,0)"
           x="-256"
           y="-688"
           width="448"
           height="448"
           rx="36"
           ry="36"
           enable-background="new"
           filter="url(#a)"
           opacity=".1"
           id="rect9" />
        <rect
           transform="matrix(0,-1,-1,0,0,0)"
           x="-256"
           y="-688"
           width="448"
           height="448"
           rx="36"
           ry="36"
           enable-background="new"
           filter="url(#a)"
           opacity=".2"
           id="rect11" />
      </g>
      <rect
         transform="matrix(0,-1,-1,0,0,0)"
         x="-252"
         y="-688"
         width="448"
         height="448"
         rx="36"
         ry="36"
         enable-background="new"
         fill="#c03630"
         id="rect15" />
      <path
         transform="translate(0,-244)"
         d="m276 48c-19.944 0-36 16.056-36 36v2c0-19.944 16.056-36 36-36h376c19.944 0 36 16.056 36 36v-2c0-19.944-16.056-36-36-36z"
         enable-background="new"
         fill="#fff"
         opacity=".2"
         id="path17" />
      <path
         d="m591.59-132.56v64.374c-64.272 1.1296-80.068 63.809-80.068 63.809h48.477v64.374h-75.166c-45.208 139.48-149.24 127.05-149.24 127.05v-64.374s66.016 12.246 99.676-110.68c42.107-153.77 156.32-144.56 156.32-144.56z"
         enable-background="new"
         fill="#fff"
         id="path19" />
    </g>
  </g>
  <path
     style="opacity:0.284981;fill:#ff0000;stroke-width:1.16895"
     d="m 60.474993,478.59059 c -7.339651,-1.74352 -13.119965,-5.32733 -18.822679,-11.67012 -9.678421,-10.76473 -8.987228,6.24726 -8.643063,-212.72751 l 0.305817,-194.576522 2.637314,-4.935535 c 4.1363,-7.740776 9.237486,-12.814922 16.438073,-16.35094 l 6.641508,-3.26147 H 256 452.96804 l 6.6415,3.26147 c 7.20059,3.536018 12.30178,8.610164 16.43808,16.35094 l 2.63731,4.935535 0.30582,194.576522 c 0.26899,171.14675 0.0921,195.31162 -1.46891,200.68136 -2.34276,8.05881 -11.18161,17.82331 -19.56226,21.61088 l -6.16049,2.78421 -193.46119,0.18339 C 147.91135,479.55754 62.98747,479.18742 60.474993,478.59059 Z M 162.52002,412.23814 c 28.16753,-7.34185 51.62661,-22.0065 72.28719,-45.18791 14.49086,-16.2589 30.47326,-44.33851 38.75633,-68.09133 l 3.77063,-10.81278 h 37.84433 37.84433 v -32.73059 -32.7306 h -23.96347 c -19.8375,0 -23.96347,-0.28368 -23.96347,-1.6476 0,-0.90618 2.61463,-6.82399 5.81029,-13.15068 8.91433,-17.64842 20.78993,-30.17234 36.37745,-38.36333 9.18269,-4.82538 23.46032,-8.79273 31.64308,-8.79273 h 5.65776 V 128 95.269406 h -8.63798 c -15.84477,0 -37.92216,5.728514 -55.06978,14.289194 -20.79048,10.37932 -44.16682,30.93579 -58.85626,51.75647 -11.39433,16.15023 -23.45606,41.60756 -31.17105,65.78923 -12.13923,38.04882 -14.70371,45.18292 -20.90786,58.16291 -8.87629,18.57054 -15.97947,28.84689 -28.67403,41.48342 -15.81379,15.74149 -31.3461,23.34983 -47.66836,23.34983 h -6.18362 v 32.9043 32.90431 l 13.15068,-0.6882 c 7.23288,-0.3785 17.11209,-1.72074 21.95381,-2.98273 z"
     id="path84" />
  <path
     style="opacity:0.284981;fill:#ff0000;stroke-width:1.16895"
     d="M 58.439921,477.59273 C 48.997397,474.72045 36.858412,463.2013 35.735419,456.04756 35.36861,453.7109 34.760367,449.84458 34.383769,447.45574 34.007171,445.06689 33.757815,356.91286 33.829645,251.5579 L 33.960244,60.003405 36.76146,54.475472 C 39.939893,48.203137 46.776119,41.559741 53.672448,38.041497 58.332787,35.66397 59.264712,35.652968 256,35.652968 c 196.73529,0 197.66721,0.011 202.32755,2.388529 6.92574,3.533249 13.73656,10.169524 16.95469,16.520193 l 2.84489,5.614153 -0.30557,197.272817 -0.30558,197.2728 -2.53367,4.6758 c -3.2428,5.98447 -11.2808,13.67661 -17.58414,16.82752 l -4.92147,2.46015 -195.55342,-0.10047 C 149.3689,478.52919 60.051389,478.08292 58.439921,477.59273 Z m 94.108029,-63.3302 c 30.26031,-3.90026 63.85964,-23.73357 85.23703,-50.31451 14.63549,-18.19795 29.16655,-44.45565 36.41297,-65.7984 l 3.39644,-10.0035 h 37.71423 37.71421 v -32.73059 -32.7306 l -17.82648,-0.11561 c -9.80457,-0.0636 -20.5875,-0.4581 -23.96206,-0.87671 l -6.13557,-0.7611 5.21121,-10.52055 c 14.53087,-29.33535 37.04936,-45.99553 66.38413,-49.11394 l 7.89041,-0.83878 V 127.70077 94.943309 l -13.15068,0.664072 c -30.80163,1.555397 -61.31212,15.485869 -86.83848,39.648709 -13.3333,12.62107 -23.1811,25.1256 -31.81321,40.39568 -9.78897,17.31656 -15.36153,30.9165 -27.39253,66.85185 -15.90802,47.51561 -26.70349,67.31387 -46.97454,86.14849 -14.55684,13.52532 -26.53424,19.41899 -42.52462,20.92489 l -8.47488,0.79814 v 33.04311 33.04312 l 7.89041,-0.49675 c 4.33972,-0.27321 12.09863,-1.03915 17.24201,-1.70209 z"
     id="path160" />
</svg>
