<?xml version="1.0" encoding="UTF-8" standalone="no"?>
<svg
   width="512"
   height="512"
   enable-background="new"
   version="1.0"
   id="svg29"
   sodipodi:docname="anki.svg"
   inkscape:version="1.1 (c68e22c387, 2021-05-23)"
   xmlns:inkscape="http://www.inkscape.org/namespaces/inkscape"
   xmlns:sodipodi="http://sodipodi.sourceforge.net/DTD/sodipodi-0.dtd"
   xmlns="http://www.w3.org/2000/svg"
   xmlns:svg="http://www.w3.org/2000/svg">
  <sodipodi:namedview
     id="namedview31"
     pagecolor="#ffffff"
     bordercolor="#666666"
     borderopacity="1.0"
     inkscape:pageshadow="2"
     inkscape:pageopacity="0.0"
     inkscape:pagecheckerboard="0"
     showgrid="false"
     inkscape:zoom="0.85546875"
     inkscape:cx="255.41553"
     inkscape:cy="256"
     inkscape:window-width="1366"
     inkscape:window-height="706"
     inkscape:window-x="0"
     inkscape:window-y="0"
     inkscape:window-maximized="1"
     inkscape:current-layer="svg29" />
  <defs
     id="defs5">
    <filter
       id="a"
       x="-0.038636364"
       y="-0.030357143"
       width="1.0772727"
       height="1.0607143"
       color-interpolation-filters="sRGB">
      <feGaussianBlur
         stdDeviation="4"
         id="feGaussianBlur2" />
    </filter>
  </defs>
  <g
     transform="translate(0,212)"
     id="g27">
    <g
       id="g25">
      <g
         transform="translate(-208,16)"
         id="g23">
        <g
           id="g13">
          <path
             d="m640 230v-400c0-13.296-10.704-24-24-24h-304c-13.296 0-24 10.704-24 24v400c0 13.296 10.704 24 24 24h304c13.296 0 24-10.704 24-24z"
             opacity=".2"
             id="path7" />
          <path
             d="m640 232v-400c0-13.296-10.704-24-24-24h-304c-13.296 0-24 10.704-24 24v400c0 13.296 10.704 24 24 24h304c13.296 0 24-10.704 24-24z"
             filter="url(#a)"
             opacity=".1"
             stroke="#000"
             stroke-width="8"
             id="path9" />
          <path
             d="m640 232v-400c0-13.296-10.704-24-24-24h-304c-13.296 0-24 10.704-24 24v400c0 13.296 10.704 24 24 24h304c13.296 0 24-10.704 24-24z"
             filter="url(#a)"
             opacity=".2"
             id="path11" />
        </g>
        <path
           d="m640 228v-400c0-13.296-10.704-24-24-24h-304c-13.296 0-24 10.704-24 24v400c0 13.296 10.704 24 24 24h304c13.296 0 24-10.704 24-24z"
           fill="#666"
           id="path15" />
        <path
           d="m312-196c-13.296 0-24 10.704-24 24v2c0-13.296 10.704-24 24-24h304c13.296 0 24 10.704 24 24v-2c0-13.296-10.704-24-24-24z"
           fill="#fff"
           opacity=".1"
           id="path17" />
        <path
           d="m549.77-115.14c-7.5013 2.0814-20.073 18.827-26.451 20.066-7.2894 1.4166-29.139-13.183-34.204-7.7528-5.0646 5.4303 10.938 26.834 10.033 34.204-0.90436 7.3701-21.842 24.061-18.242 30.555 3.5996 6.4946 28.842-2.2263 35.572 0.912 6.7295 3.1385 15.969 27.867 23.258 26.451 7.289-1.417 6.7928-27.861 11.857-33.292 5.0643-5.4303 31.474-6.7676 32.38-14.138 0.90436-7.3701-24.219-14.94-27.819-21.434-3.5996-6.4946 3.0812-32.433-3.6483-35.572-0.84109-0.39273-1.6646-0.29782-2.7362 0zm-118.57 104.89c-13.736 1.8839-15.533 51.513-25.539 61.111-10.005 9.5977-59.114 9.1568-61.567 22.802-2.4531 13.646 43.673 30.843 49.709 43.325 6.0361 12.481-9.4836 59.121 2.7362 65.671 12.22 6.5495 42.814-32.32 56.55-34.204 13.736-1.8839 53.386 27.384 63.391 17.786 10.005-9.5979-17.503-50.657-15.05-64.303 2.4529-13.646 42.52-42.244 36.484-54.726-6.0363-12.481-53.451 1.0767-65.671-5.4727-12.22-6.5497-27.309-53.873-41.044-51.989z"
           enable-background="new"
           opacity=".2"
           id="path19" />
        <path
           d="m549.77-117.14c-7.5013 2.0814-20.073 18.827-26.451 20.066-7.2894 1.4166-29.139-13.183-34.204-7.7528-5.0646 5.4303 10.938 26.834 10.033 34.204-0.90436 7.3701-21.842 24.061-18.242 30.555 3.5996 6.4946 28.842-2.2263 35.572 0.912 6.7295 3.1385 15.969 27.867 23.258 26.451 7.289-1.417 6.7928-27.861 11.857-33.292 5.0643-5.4303 31.474-6.7676 32.38-14.138 0.90436-7.3701-24.219-14.94-27.819-21.434-3.5996-6.4946 3.0812-32.433-3.6483-35.572-0.84109-0.39273-1.6646-0.29782-2.7362 0zm-118.57 104.89c-13.736 1.8839-15.533 51.513-25.539 61.111-10.005 9.5977-59.114 9.1568-61.567 22.802-2.4531 13.646 43.673 30.843 49.709 43.325 6.0361 12.481-9.4836 59.121 2.7362 65.671 12.22 6.5495 42.814-32.32 56.55-34.204 13.736-1.8839 53.386 27.384 63.391 17.786 10.005-9.5979-17.503-50.657-15.05-64.303 2.4529-13.646 42.52-42.244 36.484-54.726-6.0363-12.481-53.451 1.0767-65.671-5.4727-12.22-6.5497-27.309-53.873-41.044-51.989z"
           enable-background="new"
           fill="#90caf9"
           id="path21" />
      </g>
    </g>
  </g>
  <path
     style="opacity:0.96;fill:#00bfff;stroke-width:1.16895"
     d="m 186.32667,404.80746 c -1.6036,-3.10102 -1.8205,-6.0487 -1.26872,-17.24201 0.36605,-7.42584 1.23957,-18.49878 1.94115,-24.60655 1.5386,-13.3947 0.79797,-18.78349 -3.24138,-23.58398 -1.68027,-1.99689 -11.23095,-8.98175 -21.22373,-15.52192 -36.67923,-24.00615 -35.27414,-28.67732 11.63953,-38.69522 19.6583,-4.19782 22.82585,-5.58162 26.25813,-11.47134 1.54746,-2.6554 4.69427,-12.31862 6.99293,-21.47382 6.88565,-27.42447 10.67608,-35.37244 16.86931,-35.37244 5.3703,0 11.16744,7.32982 24.73418,31.27355 8.8137,15.55516 13.02708,20.06203 20.03061,21.42592 2.92922,0.57044 12.68996,0.45519 23.17876,-0.27368 44.41516,-3.08644 47.49105,2.3307 19.10237,33.64222 -18.48976,20.39341 -19.90341,23.10354 -17.42798,33.41119 0.81667,3.4006 4.51473,13.8103 8.21792,23.13267 14.85284,37.39048 9.85999,41.36528 -29.56335,23.53541 -7.283,-3.29386 -16.09954,-6.8196 -19.59232,-7.83497 -9.9167,-2.88287 -11.87255,-1.87946 -38.06759,19.52974 -17.99418,14.70662 -24.93846,17.16684 -28.57982,10.12523 z"
     id="path922" />
  <path
     style="opacity:0.96;fill:#1e90ff;stroke-width:1.16895"
     d="m 325.34295,210.11872 c -1.83061,-2.41096 -5.87929,-8.20211 -8.99706,-12.86923 -3.78928,-5.67232 -6.65149,-8.73235 -8.63302,-9.22968 -1.63038,-0.4092 -8.87156,-0.0856 -16.0915,0.71913 -7.21995,0.80472 -14.24316,1.10893 -15.60715,0.67602 -3.97702,-1.26226 -2.99063,-5.57991 3.07254,-13.44912 11.78893,-15.30054 13.17618,-17.63547 12.42023,-20.90501 -0.39388,-1.70355 -2.7817,-7.75394 -5.30627,-13.44531 -5.67713,-12.79848 -6.43279,-16.18875 -4.04927,-18.1669 2.00714,-1.66578 5.4342,-0.84948 21.8074,5.19436 5.74245,2.11972 9.84079,2.98653 11.79797,2.49531 1.64942,-0.41398 7.42136,-4.72013 12.82654,-9.56922 16.59809,-14.89046 18.87746,-13.77739 18.35224,8.96191 -0.39674,17.17672 -0.0611,17.8674 11.74141,24.16015 9.27498,4.94516 16.55587,10.41997 16.55587,12.44907 0,2.76466 -4.92527,5.24498 -17.77388,8.95076 -6.61889,1.90902 -12.94432,4.3667 -14.05652,5.46153 -1.17565,1.15729 -3.23955,7.49458 -4.93025,15.13855 -1.59945,7.23137 -3.46962,14.19719 -4.15594,15.4796 -1.90897,3.56694 -5.29488,2.79269 -8.97334,-2.05192 z"
     id="path961" />
  <path
     style="opacity:0.96;fill:#1e90ff;stroke-width:1.16895"
     d="m 188.26071,406.26984 c -2.08946,-2.08945 -2.39791,-3.86288 -2.39938,-13.79495 -9.3e-4,-6.2685 0.60468,-18.25498 1.3458,-26.63662 0.74111,-8.38165 0.99004,-17.1447 0.55316,-19.47347 -1.05815,-5.64038 -5.1775,-9.46241 -24.08577,-22.34726 -19.95179,-13.59596 -26.05522,-19.2584 -25.53498,-23.69 0.55375,-4.71707 7.50299,-7.78536 29.02028,-12.81329 25.57465,-5.97601 28.79171,-7.12648 32.01547,-11.44922 3.08357,-4.13476 4.72953,-8.82068 10.5381,-30.0011 4.80046,-17.50446 7.81926,-24.8412 11.19377,-27.20481 5.65819,-3.96315 10.85262,1.25052 24.96394,25.05646 10.19604,17.20082 15.21511,23.26781 21.0776,25.47839 2.25539,0.85045 11.61627,1.02186 28.63927,0.52443 26.43382,-0.77243 30.4901,-0.27816 32.77645,3.99391 1.94541,3.63503 -3.17591,12.15352 -16.28787,27.09226 -6.48948,7.3936 -13.47656,15.81004 -15.52685,18.70319 -5.53847,7.81534 -5.04048,12.65507 3.77635,36.70016 7.73631,21.09831 9.41443,27.62269 8.29953,32.26788 -0.60518,2.52145 -1.44159,2.97064 -6.09674,3.27416 -5.57286,0.36337 -8.65345,-0.6768 -38.93067,-13.14501 -7.07214,-2.91232 -14.37891,-5.30197 -16.23726,-5.31031 -5.2869,-0.0238 -11.82338,3.88725 -27.59835,16.51308 -21.69866,17.36697 -27.43549,20.32848 -31.50185,16.26212 z"
     id="path1037" />
</svg>
