<?xml version="1.0" encoding="UTF-8" standalone="no"?>
<svg
   width="512"
   height="512"
   enable-background="new"
   version="1.0"
   id="svg32"
   sodipodi:docname="blender.svg"
   inkscape:version="1.1 (c68e22c387, 2021-05-23)"
   xmlns:inkscape="http://www.inkscape.org/namespaces/inkscape"
   xmlns:sodipodi="http://sodipodi.sourceforge.net/DTD/sodipodi-0.dtd"
   xmlns="http://www.w3.org/2000/svg"
   xmlns:svg="http://www.w3.org/2000/svg">
  <sodipodi:namedview
     id="namedview34"
     pagecolor="#ffffff"
     bordercolor="#666666"
     borderopacity="1.0"
     inkscape:pageshadow="2"
     inkscape:pageopacity="0.0"
     inkscape:pagecheckerboard="0"
     showgrid="false"
     inkscape:zoom="0.85546875"
     inkscape:cx="255.41553"
     inkscape:cy="256"
     inkscape:window-width="1366"
     inkscape:window-height="706"
     inkscape:window-x="0"
     inkscape:window-y="0"
     inkscape:window-maximized="1"
     inkscape:current-layer="svg32" />
  <defs
     id="defs8">
    <filter
       id="a"
       x="-0.03252782"
       y="-0.032646565"
       width="1.0651271"
       height="1.0652931"
       color-interpolation-filters="sRGB">
      <feGaussianBlur
         stdDeviation="4.6389128"
         id="feGaussianBlur2" />
    </filter>
    <filter
       id="b"
       x="-0.023999999"
       y="-0.023999999"
       width="1.048"
       height="1.048"
       color-interpolation-filters="sRGB">
      <feGaussianBlur
         stdDeviation="1.92"
         id="feGaussianBlur5" />
    </filter>
  </defs>
  <g
     transform="translate(0,212)"
     id="g30">
    <g
       id="g28">
      <g
         transform="translate(-208,16)"
         id="g26">
        <path
           d="m437.49-203.56c-8.1798 0-16.359 3.1346-22.627 9.4023-12.536 12.536-12.536 32.718 0 45.254l88.902 88.902h-231.77c-17.728 0-32 14.272-32 32s14.272 32 32 32c33.318-0.09441 80.569-0.10326 125.82-0.0918l-163.97 163.97c-12.536 12.536-12.536 32.718 0 45.254 12.536 12.536 32.718 12.536 45.254 0 24.068-24.205 58.544-58.694 91.238-91.369a160 160 0 0 0 158.33 138.23 160 160 0 0 0 160-160 160 160 0 0 0-54.83-120.42c-11.846-11.815-118.24-117.93-173.72-173.73-6.2678-6.2678-14.447-9.4024-22.627-9.4023z"
           filter="url(#a)"
           opacity=".1"
           stroke="#000"
           stroke-linecap="round"
           stroke-linejoin="round"
           stroke-width="8"
           id="path10" />
        <path
           d="m437.49-211.56c-8.1798 0-16.359 3.1346-22.627 9.4023-12.536 12.536-12.536 32.718 0 45.254l88.902 88.902h-231.77c-17.728 0-32 14.272-32 32s14.272 32 32 32c33.318-0.09441 80.569-0.10326 125.82-0.0918l-163.97 163.97c-12.536 12.536-12.536 32.718 0 45.254 12.536 12.536 32.718 12.536 45.254 0 24.068-24.205 58.544-58.694 91.238-91.369a160 160 0 0 0 158.33 138.23 160 160 0 0 0 160-160 160 160 0 0 0-54.83-120.42c-11.846-11.815-118.24-117.93-173.72-173.73-6.2678-6.2678-14.447-9.4024-22.627-9.4023z"
           filter="url(#a)"
           opacity=".2"
           id="path12" />
        <path
           d="m437.49-211.56c-8.1798 0-16.359 3.1346-22.627 9.4023-12.536 12.536-12.536 32.718 0 45.254l88.902 88.902h-231.77c-17.728 0-32 14.272-32 32s14.272 32 32 32c33.318-0.09441 80.569-0.10326 125.82-0.0918l-163.97 163.97c-12.536 12.536-12.536 32.718 0 45.254 12.536 12.536 32.718 12.536 45.254 0 24.068-24.205 58.544-58.694 91.238-91.369a160 160 0 0 0 158.33 138.23 160 160 0 0 0 160-160 160 160 0 0 0-54.83-120.42c-11.846-11.815-118.24-117.93-173.72-173.73-6.2678-6.2678-14.447-9.4024-22.627-9.4023z"
           fill="#f5792a"
           id="path14" />
        <circle
           cx="528.67"
           cy="96"
           r="96"
           filter="url(#b)"
           opacity=".2"
           id="circle16" />
        <circle
           cx="528.67"
           cy="92"
           r="96"
           fill="#fff"
           id="circle18" />
        <circle
           cx="528.67"
           cy="92"
           r="54"
           fill="#0d528a"
           id="circle20"
           style="fill:#f5792a;opacity:0.96;fill-opacity:1" />
        <path
           transform="translate(0,-244)"
           d="m437.49 32.441c-8.1798 0-16.359 3.1346-22.627 9.4023-6.5233 6.5233-9.6448 15.117-9.3789 23.627 0.24508-7.8431 3.3666-15.615 9.3789-21.627 6.2678-6.2678 14.447-9.4023 22.627-9.4023 8.1798-1e-5 16.359 3.1345 22.627 9.4023 55.483 55.798 161.87 161.92 173.72 173.73a160 160 0 0 1 54.789 119.61 160 160 0 0 0 0.04102-1.1816 160 160 0 0 0-54.83-120.42c-11.846-11.815-118.24-117.93-173.72-173.73-6.2678-6.2678-14.447-9.4024-22.627-9.4023zm-165.49 143.56c-17.728 0-32 14.272-32 32 0 0.33529 0.0153 0.66726 0.0254 1 0.52584-17.261 14.582-31 31.975-31h231.77l-2-2zm123.82 65.908-161.97 161.97c-6.5233 6.5233-9.6448 15.117-9.3789 23.627 0.24508-7.8431 3.3666-15.615 9.3789-21.627l163.97-163.97c-0.67153-1.7e-4 -1.3276 1.6e-4 -2 0z"
           fill="#fff"
           opacity=".2"
           id="path22" />
        <path
           transform="translate(0,-244)"
           d="m405.48 63.471c-0.26592 8.5097 2.8556 17.104 9.3789 23.627l86.902 86.902h2l-88.902-88.902c-6.0123-6.0123-9.1338-13.784-9.3789-21.627zm-165.46 143.53c-0.0101 0.33274-0.0254 0.66471-0.0254 1 0 17.728 14.272 32 32 32 32.823-0.093 79.185-0.10248 123.82-0.0918l2-2c-45.25-0.01146-92.501-0.00261-125.82 0.0918-17.393 0-31.449-13.739-31.975-31zm448.6 128.18a160 160 0 0 1-159.96 158.82 160 160 0 0 1-158.33-138.23c-32.694 32.675-67.17 67.164-91.238 91.369-12.536 12.536-32.718 12.536-45.254 0-6.0123-6.0123-9.1338-13.784-9.3789-21.627-0.26591 8.5097 2.8556 17.104 9.3789 23.627 12.536 12.536 32.718 12.536 45.254 0 24.068-24.205 58.544-58.694 91.238-91.369a160 160 0 0 0 158.33 138.23 160 160 0 0 0 160-160 160 160 0 0 0-0.041-0.81836z"
           opacity=".2"
           id="path24" />
      </g>
    </g>
  </g>
</svg>
