<?xml version="1.0" encoding="UTF-8" standalone="no"?>
<svg
   width="512"
   height="512"
   enable-background="new"
   version="1.0"
   id="svg40"
   sodipodi:docname="bookmarks-organize.svg"
   inkscape:version="1.1 (c68e22c387, 2021-05-23)"
   xmlns:inkscape="http://www.inkscape.org/namespaces/inkscape"
   xmlns:sodipodi="http://sodipodi.sourceforge.net/DTD/sodipodi-0.dtd"
   xmlns="http://www.w3.org/2000/svg"
   xmlns:svg="http://www.w3.org/2000/svg">
  <sodipodi:namedview
     id="namedview42"
     pagecolor="#ffffff"
     bordercolor="#666666"
     borderopacity="1.0"
     inkscape:pageshadow="2"
     inkscape:pageopacity="0.0"
     inkscape:pagecheckerboard="0"
     showgrid="false"
     inkscape:zoom="0.85546875"
     inkscape:cx="256"
     inkscape:cy="256"
     inkscape:window-width="1276"
     inkscape:window-height="650"
     inkscape:window-x="45"
     inkscape:window-y="29"
     inkscape:window-maximized="0"
     inkscape:current-layer="svg40" />
  <defs
     id="defs14">
    <clipPath
       id="d">
      <path
         d="m232 148v56h19c1.662 0 3-1.338 3-3v-50c0-1.662-1.338-3-3-3z"
         fill="#d8d8d8"
         id="path2" />
    </clipPath>
    <filter
       id="a"
       x="-0.038636364"
       y="-0.028594274"
       width="1.0772727"
       height="1.0569142"
       color-interpolation-filters="sRGB">
      <feGaussianBlur
         stdDeviation="4"
         id="feGaussianBlur5" />
    </filter>
    <filter
       id="b"
       x="-0.068000001"
       y="-0.015111111"
       width="1.136"
       height="1.0302222"
       color-interpolation-filters="sRGB">
      <feGaussianBlur
         stdDeviation="1.36"
         id="feGaussianBlur8" />
    </filter>
    <filter
       id="c"
       x="-0.048020014"
       y="-0.015997777"
       width="1.09604"
       height="1.0319956"
       color-interpolation-filters="sRGB">
      <feGaussianBlur
         stdDeviation="0.40016678"
         id="feGaussianBlur11" />
    </filter>
  </defs>
  <path
     d="m394.45 19.867c-0.80443-0.0077-1.62 0.03572-2.4453 0.13281l-136 16h-152c-13.296 0-24 10.704-24 24v400c0 13.296 10.704 24 24 24h152l136 16c10.841 1.2754 20.052-6.7605 23.004-17.035 9.8576-2.9838 16.996-12.108 16.996-22.965v-400c0-10.857-7.1385-19.981-16.996-22.965-2.7276-9.4925-10.796-17.075-20.559-17.168z"
     filter="url(#a)"
     opacity=".2"
     id="path16" />
  <path
     d="m394.45 19.867c-0.80443-0.0077-1.62 0.03572-2.4453 0.13281l-136 16h-152c-13.296 0-24 10.704-24 24v400c0 13.296 10.704 24 24 24h152l136 16c10.841 1.2754 20.052-6.7605 23.004-17.035 9.8576-2.9838 16.996-12.108 16.996-22.965v-400c0-10.857-7.1385-19.981-16.996-22.965-2.7276-9.4925-10.796-17.075-20.559-17.168z"
     filter="url(#a)"
     opacity=".1"
     stroke="#000"
     stroke-width="8"
     id="path18" />
  <path
     d="m104 32c-13.296 0-24 10.704-24 24v400c0 13.296 10.704 24 24 24h152v-448z"
     fill="#c83737"
     id="path20" />
  <path
     d="m256 32v448h152c13.296 0 24-10.704 24-24v-400c0-13.296-10.704-24-24-24z"
     fill="#a02c2c"
     id="path22" />
  <path
     transform="matrix(8,0,0,8,-1600,-1152)"
     d="m232 148v56l17 2c1.6506 0.19419 3-1.338 3-3v-54c0-1.662-1.3494-3.1942-3-3z"
     clip-path="url(#d)"
     filter="url(#c)"
     opacity=".2"
     id="path24" />
  <path
     d="m104 32c-13.296 0-24 10.704-24 24v2c0-13.296 10.704-24 24-24h304c13.296 0 24 10.704 24 24v-2c0-13.296-10.704-24-24-24h-152z"
     fill="#fff"
     opacity=".5"
     id="path26" />
  <path
     d="m256 32v448l136 16c13.205 1.5535 24-10.704 24-24v-432c0-13.296-10.795-25.554-24-24z"
     fill="#d35f5f"
     id="path28" />
  <path
     d="m208 36v216l24-16 24 16v-216z"
     enable-background="new"
     filter="url(#b)"
     opacity=".2"
     id="path30" />
  <g
     fill="#fff"
     id="g38">
    <path
       d="m208 32v216l24-16 24 16v-216h-48z"
       enable-background="new"
       id="path32" />
    <path
       d="m394.45 15.87c-0.80443-8e-3 -1.62 0.0357-2.4453 0.13281l-136 16v2l136-16c13.205-1.5535 24 10.704 24 24v-2c0-12.465-9.4882-24.018-21.555-24.133z"
       opacity=".8"
       id="path34" />
    <path
       d="m216 16c-8 0-8 8-8 8v2s0-8 8-8h32s8 0 8 8v-2c0-8-8-8-8-8z"
       enable-background="new"
       opacity=".1"
       id="path36" />
  </g>
  <path
     style="opacity:0.284981;fill:#ff4500;stroke-width:1.16895"
     d="m 101.11416,479.27937 c -0.64293,-0.21447 -2.628792,-0.71232 -4.413037,-1.10633 -1.784246,-0.39402 -5.304196,-2.57758 -7.822112,-4.85237 -8.969137,-8.10307 -8.313101,9.92793 -7.956446,-218.68128 l 0.319444,-204.757869 3.506849,-4.96451 c 1.928768,-2.730479 5.610959,-6.063411 8.182649,-7.406513 4.518267,-2.359731 6.507108,-2.45296 59.031963,-2.767165 l 54.35616,-0.325161 -0.31008,107.328468 c -0.26178,90.60512 -0.0546,107.67788 1.32963,109.57093 1.56939,2.14625 2.11171,1.93122 12.64206,-5.01244 6.05128,-3.9902 11.45597,-7.2549 12.01039,-7.2549 0.55443,0 6.15428,3.28767 12.4441,7.30593 l 11.43604,7.30594 0.0642,113.09589 0.0641,113.09589 -76.85845,-0.0924 c -42.27214,-0.0507 -77.38447,-0.26776 -78.02739,-0.48222 z"
     id="path99" />
  <path
     style="opacity:0.284981;fill:#ff4500;stroke-width:1.16895"
     d="m 337.82648,489.1915 c -25.39543,-3.06804 -54.20298,-6.501 -64.01677,-7.62878 l -17.84326,-2.05052 0.60586,-115.26295 c 0.33322,-63.39462 0.87245,-162.07927 1.19829,-219.29921 0.37,-64.973935 0.17165,-105.243356 -0.52827,-107.251147 -0.61639,-1.768181 -0.96647,-3.214875 -0.77796,-3.214875 0.18851,0 31.57227,-3.68586 69.74169,-8.1908 56.50476,-6.668968 70.11817,-7.953433 73.26997,-6.913244 5.51778,1.821032 10.81357,6.650856 13.30391,12.13331 2.05734,4.529235 2.14694,13.836871 2.17156,225.578846 l 0.0257,220.85467 -2.49304,5.14991 c -1.3766,2.84367 -4.596,6.6733 -7.18908,8.55171 -4.20217,3.04404 -5.56891,3.38706 -12.99556,3.26157 -4.56477,-0.0771 -29.07762,-2.65045 -54.47306,-5.71849 z"
     id="path175" />
  <path
     style="opacity:0.284981;fill:#dc143c;stroke-width:1.16895"
     d="M 375.81735,493.07943 C 370.48948,492.39338 264.0993,480.01295 260.1221,479.61619 l -3.47607,-0.34678 0.5537,-123.3242 c 0.30453,-67.82832 0.55369,-167.90507 0.55369,-222.3928 0,-79.191461 0.2972,-99.068566 1.48126,-99.068489 0.81469,5.4e-5 23.69688,-2.611183 50.84932,-5.802748 66.05067,-7.763761 85.84541,-9.733427 89.24474,-8.880251 4.44306,1.115138 11.95683,8.607129 13.37577,13.337 2.01149,6.705134 3.09659,440.092998 1.11689,446.091538 -0.81568,2.47155 -3.76863,6.77929 -6.56211,9.57277 l -5.07905,5.07905 -11.42801,-0.17515 c -6.28542,-0.0963 -13.00611,-0.37835 -14.93488,-0.6267 z"
     id="path460" />
</svg>
