<?xml version="1.0" encoding="UTF-8" standalone="no"?>
<svg
   width="512"
   height="512"
   enable-background="new"
   version="1.0"
   id="svg32"
   sodipodi:docname="calibre.svg"
   inkscape:version="1.1 (c68e22c387, 2021-05-23)"
   xmlns:inkscape="http://www.inkscape.org/namespaces/inkscape"
   xmlns:sodipodi="http://sodipodi.sourceforge.net/DTD/sodipodi-0.dtd"
   xmlns="http://www.w3.org/2000/svg"
   xmlns:svg="http://www.w3.org/2000/svg">
  <sodipodi:namedview
     id="namedview34"
     pagecolor="#ffffff"
     bordercolor="#666666"
     borderopacity="1.0"
     inkscape:pageshadow="2"
     inkscape:pageopacity="0.0"
     inkscape:pagecheckerboard="0"
     showgrid="false"
     inkscape:zoom="0.42773438"
     inkscape:cx="-36.237443"
     inkscape:cy="208.07306"
     inkscape:window-width="1366"
     inkscape:window-height="706"
     inkscape:window-x="0"
     inkscape:window-y="0"
     inkscape:window-maximized="1"
     inkscape:current-layer="svg32" />
  <defs
     id="defs8">
    <filter
       id="a"
       x="-0.038636364"
       y="-0.030357143"
       width="1.0772727"
       height="1.0607143"
       color-interpolation-filters="sRGB">
      <feGaussianBlur
         stdDeviation="4"
         id="feGaussianBlur2" />
    </filter>
    <filter
       id="b"
       x="-0.068000001"
       y="-0.015111111"
       width="1.136"
       height="1.0302222"
       color-interpolation-filters="sRGB">
      <feGaussianBlur
         stdDeviation="1.36"
         id="feGaussianBlur5" />
    </filter>
  </defs>
  <g
     transform="translate(0,212)"
     id="g30">
    <g
       id="g28">
      <g
         transform="translate(-208,16)"
         id="g26">
        <path
           transform="matrix(-1 0 0 1 928 0)"
           d="m312-192c-13.296 0-24 10.704-24 24v400c0 13.296 10.704 24 24 24h304c13.296 0 24-10.704 24-24v-400c0-13.296-10.704-24-24-24h-152z"
           filter="url(#a)"
           opacity=".1"
           stroke="#000"
           stroke-width="8"
           id="path10" />
        <path
           d="m312-192c-13.296 0-24 10.704-24 24v400c0 13.296 10.704 24 24 24h304c13.296 0 24-10.704 24-24v-400c0-13.296-10.704-24-24-24h-152z"
           filter="url(#a)"
           opacity=".2"
           id="path12" />
        <path
           transform="translate(0,-244)"
           d="m312 48c-13.296 0-24 10.704-24 24v400c0 13.296 10.704 24 24 24h304c13.296 0 24-10.704 24-24v-400c0-13.296-10.704-24-24-24h-152z"
           fill="#863b29"
           id="path14"
           style="fill:#ff6347;opacity:0.96" />
        <path
           transform="translate(0,-244)"
           d="m544 52v216l24-16 24 16v-216z"
           enable-background="new"
           filter="url(#b)"
           opacity=".2"
           id="path16" />
        <path
           transform="translate(0,-244)"
           d="m544 48v216l24-16 24 16v-216z"
           enable-background="new"
           fill="#e6b17d"
           id="path18" />
        <path
           transform="translate(0,-244)"
           d="m312 48c-13.296 0-24 10.704-24 24v400c0 13.296 10.704 24 24 24h40v-448z"
           opacity=".2"
           id="path20" />
        <path
           transform="translate(0,76)"
           d="m312-272c-13.296 0-24 10.704-24 24v2c0-13.296 10.704-24 24-24h304c13.296 0 24 10.704 24 24v-2c0-13.296-10.704-24-24-24h-152z"
           fill="#fff"
           opacity=".2"
           id="path22" />
        <path
           d="m312 252c-13.296 0-24-10.704-24-24v-2c0 13.296 10.704 24 24 24h304c13.296 0 24-10.704 24-24v2c0 13.296-10.704 24-24 24h-152z"
           opacity=".2"
           id="path24" />
      </g>
    </g>
  </g>
</svg>
