<?xml version="1.0" encoding="UTF-8" standalone="no"?>
<svg
   width="512"
   height="512"
   enable-background="new"
   version="1.0"
   id="svg50"
   sodipodi:docname="dragonplayer.svg"
   inkscape:version="1.1 (c68e22c387, 2021-05-23)"
   xmlns:inkscape="http://www.inkscape.org/namespaces/inkscape"
   xmlns:sodipodi="http://sodipodi.sourceforge.net/DTD/sodipodi-0.dtd"
   xmlns="http://www.w3.org/2000/svg"
   xmlns:svg="http://www.w3.org/2000/svg">
  <sodipodi:namedview
     id="namedview52"
     pagecolor="#ffffff"
     bordercolor="#666666"
     borderopacity="1.0"
     inkscape:pageshadow="2"
     inkscape:pageopacity="0.0"
     inkscape:pagecheckerboard="0"
     showgrid="false"
     inkscape:zoom="0.85546875"
     inkscape:cx="255.41553"
     inkscape:cy="256"
     inkscape:window-width="1366"
     inkscape:window-height="706"
     inkscape:window-x="0"
     inkscape:window-y="0"
     inkscape:window-maximized="1"
     inkscape:current-layer="svg50" />
  <defs
     id="defs14">
    <filter
       id="a"
       x="-0.02599999"
       y="-0.022285706"
       width="1.052"
       height="1.0445714"
       color-interpolation-filters="sRGB">
      <feGaussianBlur
         stdDeviation="4.1599986"
         id="feGaussianBlur2" />
    </filter>
    <filter
       id="c"
       x="-0.12"
       y="-0.12"
       width="1.24"
       height="1.24"
       color-interpolation-filters="sRGB">
      <feGaussianBlur
         stdDeviation="3.2"
         id="feGaussianBlur5" />
    </filter>
    <filter
       id="b"
       x="-0.12506257"
       y="-0.11533151"
       width="1.2501251"
       height="1.230663"
       color-interpolation-filters="sRGB">
      <feGaussianBlur
         stdDeviation="7.6888914"
         id="feGaussianBlur8" />
    </filter>
    <filter
       id="d"
       x="-0.060000001"
       y="-0.060000001"
       width="1.12"
       height="1.12"
       color-interpolation-filters="sRGB">
      <feGaussianBlur
         stdDeviation="1.6"
         id="feGaussianBlur11" />
    </filter>
  </defs>
  <g
     transform="translate(0,212)"
     id="g48">
    <g
       transform="translate(-208,16)"
       id="g46">
      <g
         id="g22">
        <rect
           transform="matrix(0,-1,-1,0,0,0)"
           x="-224"
           y="-688"
           width="384"
           height="448"
           rx="36"
           ry="36"
           enable-background="new"
           filter="url(#a)"
           opacity=".1"
           id="rect16" />
        <rect
           transform="matrix(0,-1,-1,0,0,0)"
           x="-224"
           y="-688"
           width="384"
           height="448"
           rx="36"
           ry="36"
           enable-background="new"
           filter="url(#a)"
           opacity=".2"
           id="rect18" />
        <rect
           transform="matrix(0,-1,-1,0,0,0)"
           x="-222"
           y="-688"
           width="384"
           height="448"
           rx="36"
           ry="36"
           enable-background="new"
           opacity=".2"
           id="rect20" />
      </g>
      <path
         transform="translate(0,-244)"
         d="m276 80c-19.944 0-36 16.056-36 36v252h448v-252c0-19.944-16.056-36-36-36z"
         enable-background="new"
         fill="#c83737"
         id="path24" />
      <path
         d="m276-164c-19.944 0-36 16.056-36 36v2c0-19.944 16.056-36 36-36h376c19.944 0 36 16.056 36 36v-2c0-19.944-16.056-36-36-36z"
         enable-background="new"
         fill="#fff"
         opacity=".2"
         id="path26" />
      <path
         transform="translate(0,-244)"
         d="m240 368v60c0 19.944 16.056 36 36 36h376c19.944 0 36-16.056 36-36v-60z"
         enable-background="new"
         fill="#f2f2f2"
         id="path28" />
      <path
         transform="translate(0,-244)"
         d="m240 368v2h448v-2z"
         enable-background="new"
         fill="#fff"
         id="path30" />
      <rect
         x="528"
         y="156"
         width="128"
         height="32"
         rx="0"
         ry="16"
         enable-background="new"
         fill="#999"
         id="rect32" />
      <rect
         x="272"
         y="156"
         width="256"
         height="32"
         rx="0"
         ry="16"
         enable-background="new"
         fill="#c83737"
         id="rect34" />
      <circle
         cx="528"
         cy="176"
         r="32"
         enable-background="new"
         filter="url(#d)"
         opacity=".1"
         id="circle36" />
      <circle
         cx="528"
         cy="178"
         r="32"
         enable-background="new"
         filter="url(#c)"
         opacity=".2"
         id="circle38" />
      <circle
         cx="528"
         cy="172"
         r="32"
         enable-background="new"
         fill="#fff"
         id="circle40" />
      <path
         d="m407.1-88c-3.9238-2e-3 -7.1054 3.1856-7.1034 7.1171v145.76c-1e-3 5.4072 5.781 8.8389 10.513 6.2394l133.35-72.879c4.9198-2.699 4.9198-9.7795 0-12.479l-120.02-65.596-13.331-7.283c-1.0448-0.5744-2.2174-0.8768-3.4096-0.8768z"
         color="#000000"
         color-rendering="auto"
         enable-background="accumulate"
         filter="url(#b)"
         image-rendering="auto"
         opacity=".1"
         shape-rendering="auto"
         solid-color="#000000"
         style="isolation:auto;mix-blend-mode:normal;text-decoration-color:#000000;text-decoration-line:none;text-decoration-style:solid;text-indent:0;text-transform:none;white-space:normal"
         id="path42" />
      <path
         d="m407.1-100c-3.9238-2e-3 -7.1054 3.1856-7.1034 7.1171v145.76c-1e-3 5.4072 5.781 8.8389 10.513 6.2394l133.35-72.879c4.9198-2.699 4.9198-9.7795 0-12.479l-120.02-65.596-13.331-7.283c-1.0448-0.5744-2.2174-0.8768-3.4096-0.8768z"
         color="#000000"
         color-rendering="auto"
         enable-background="accumulate"
         fill="#f3e5f5"
         image-rendering="auto"
         shape-rendering="auto"
         solid-color="#000000"
         style="isolation:auto;mix-blend-mode:normal;text-decoration-color:#000000;text-decoration-line:none;text-decoration-style:solid;text-indent:0;text-transform:none;white-space:normal"
         id="path44" />
    </g>
  </g>
  <path
     style="opacity:0.284981;fill:#fffaf0;fill-opacity:0.976471;stroke-width:1.16895"
     d="m 194.71363,285.14025 c -1.63209,-1.63209 -1.83692,-10.27411 -1.83692,-77.50137 0,-57.29153 0.34062,-76.00507 1.40274,-77.06719 0.77151,-0.77151 2.75194,-1.40274 4.40096,-1.40274 3.14869,0 134.46465,71.01836 138.50389,74.90574 1.85844,1.78857 2.06953,2.79373 1.14126,5.43432 -0.97181,2.76442 -11.08396,8.68247 -68.91033,40.32919 -37.27427,20.39913 -68.91738,37.1005 -70.31803,37.11415 -1.40066,0.0137 -3.37326,-0.80179 -4.38357,-1.8121 z"
     id="path924" />
  <path
     style="opacity:0.284981;fill:#ffffff;fill-opacity:0.97647059;stroke-width:1.16895"
     d="m 195.06551,285.04499 c -1.3133,-1.58168 -1.6649,-14.99452 -1.93829,-73.93957 -0.18368,-39.60406 0.11461,-74.10992 0.66285,-76.67969 0.90164,-4.22621 1.32775,-4.65849 4.46295,-4.52763 3.71674,0.15513 24.00905,10.63765 85.2173,44.02121 48.74502,26.58601 54.10202,29.75808 54.99225,32.56292 0.39931,1.25812 0.0634,3.086 -0.74665,4.06195 -2.17352,2.61893 -15.94103,10.53603 -64.44074,37.05706 -56.01954,30.63308 -72.6342,39.37593 -74.82888,39.37593 -0.97706,0 -2.49842,-0.86949 -3.38079,-1.93218 z"
     id="path963" />
  <path
     style="opacity:0.284981;fill:#ffffff;fill-opacity:0.976471;stroke-width:1.16895"
     d="m 57.704866,445.85711 c -9.890571,-2.88507 -20.975627,-14.19219 -23.76732,-24.24345 -0.67485,-2.42974 -1.196748,-17.89323 -1.200433,-35.568 l -0.0065,-31.2694 H 256.06584 479.40108 l -0.35808,33.6073 -0.35807,33.60731 -3.44419,6.21747 c -3.84558,6.94204 -8.81158,11.76212 -16.16821,15.69316 l -4.93554,2.63731 -196.38357,0.19369 C 141.87828,446.84678 59.867379,446.48791 57.704866,445.85711 Z m 275.866154,-4.61755 c 8.37434,-3.13325 16.24531,-10.22662 20.10783,-18.12131 l 3.12518,-6.38766 h 39.06019 c 42.65733,0 44.70806,-0.27611 49.23148,-6.62867 3.88508,-5.45609 4.42024,-11.18488 1.59082,-17.02966 C 442.22241,383.85062 443.08522,384 394.28519,384 h -43.12578 l -4.51853,-4.62738 c -2.48519,-2.54507 -4.92674,-4.3751 -5.42566,-4.06674 -0.49893,0.30835 -1.334,-0.12298 -1.85571,-0.95851 -2.02444,-3.24224 -11.26534,-6.12819 -19.62262,-6.12819 -7.00031,0 -9.39014,0.58761 -16.19915,3.98306 -4.39305,2.19068 -9.39031,5.74135 -11.10502,7.89037 l -3.11765,3.90732 -107.36302,4e-5 C 61.026395,384 70.044851,383.29854 65.313473,393.07226 c -2.829409,5.84478 -2.294255,11.57357 1.590825,17.02966 4.884379,6.85948 0.935015,6.62867 113.426062,6.62867 h 103.25477 l 1.45389,4.02062 c 3.03474,8.39244 14.78333,18.73469 24.73267,21.77211 5.79695,1.76974 17.29592,1.14948 23.79933,-1.28376 z"
     id="path1180" />
  <path
     style="opacity:0.284981;fill:#ffffff;fill-opacity:0.976471;stroke-width:1.16895"
     d="m 196.06774,285.32541 c -1.25276,-1.25277 -1.84378,-7.2532 -2.44667,-24.84018 -0.94527,-27.57473 -0.74848,-112.56761 0.28375,-122.54916 0.6601,-6.38305 0.98827,-7.04444 3.6498,-7.35558 3.5442,-0.41433 16.62396,5.91426 54.93853,26.58178 46.99989,25.35253 79.10075,43.40233 82.99929,46.66917 4.80226,4.02411 3.9738,5.92005 -5.08389,11.63454 -16.38838,10.33943 -129.17689,71.51119 -131.85234,71.51119 -0.46019,0 -1.58,-0.74329 -2.48847,-1.65176 z"
     id="path1219" />
</svg>
