<?xml version="1.0" encoding="UTF-8" standalone="no"?>
<svg
   width="512"
   height="512"
   enable-background="new"
   version="1.0"
   id="svg40"
   sodipodi:docname="fedy.svg"
   inkscape:version="1.1 (c68e22c387, 2021-05-23)"
   xmlns:inkscape="http://www.inkscape.org/namespaces/inkscape"
   xmlns:sodipodi="http://sodipodi.sourceforge.net/DTD/sodipodi-0.dtd"
   xmlns="http://www.w3.org/2000/svg"
   xmlns:svg="http://www.w3.org/2000/svg">
  <sodipodi:namedview
     id="namedview42"
     pagecolor="#ffffff"
     bordercolor="#666666"
     borderopacity="1.0"
     inkscape:pageshadow="2"
     inkscape:pageopacity="0.0"
     inkscape:pagecheckerboard="0"
     showgrid="false"
     inkscape:zoom="0.85546875"
     inkscape:cx="256"
     inkscape:cy="256"
     inkscape:window-width="1221"
     inkscape:window-height="620"
     inkscape:window-x="45"
     inkscape:window-y="29"
     inkscape:window-maximized="0"
     inkscape:current-layer="svg40" />
  <defs
     id="defs8">
    <filter
       id="a"
       x="-0.032928572"
       y="-0.032928572"
       width="1.0658571"
       height="1.0658571"
       color-interpolation-filters="sRGB">
      <feGaussianBlur
         stdDeviation="4.48"
         id="feGaussianBlur2" />
    </filter>
    <filter
       id="b"
       x="-0.055249986"
       y="-0.055249986"
       width="1.1105"
       height="1.1105"
       color-interpolation-filters="sRGB">
      <feGaussianBlur
         stdDeviation="1.5999991"
         id="feGaussianBlur5" />
    </filter>
  </defs>
  <g
     transform="translate(0,212)"
     id="g38">
    <g
       id="g36">
      <g
         transform="translate(-208,16)"
         id="g34">
        <rect
           transform="matrix(0,-1,-1,0,0,4)"
           x="-254"
           y="-688"
           width="448"
           height="448"
           rx="24"
           ry="24"
           filter="url(#a)"
           opacity=".1"
           stroke="#000"
           stroke-width="8"
           id="rect10" />
        <rect
           transform="matrix(0,-1,-1,0,0,4)"
           x="-254"
           y="-688"
           width="448"
           height="448"
           rx="24"
           ry="24"
           filter="url(#a)"
           opacity=".2"
           id="rect12" />
        <rect
           transform="matrix(0,-1,-1,0,0,0)"
           x="-252"
           y="-688"
           width="448"
           height="448"
           rx="24"
           ry="24"
           fill="#ebebeb"
           id="rect14"
           style="fill:#ffd700;opacity:0.96;fill-opacity:0.97647059" />
        <rect
           x="304"
           y="-36"
           width="280"
           height="128"
           rx="16"
           ry="16"
           fill="#028ccc"
           id="rect16"
           style="fill:#00ffff;opacity:0.96;fill-opacity:0.97647059" />
        <g
           id="g24">
          <rect
             transform="scale(-1,1)"
             x="-640"
             y="-48"
             width="160"
             height="160"
             ry="78.852"
             color="#000000"
             enable-background="new"
             filter="url(#b)"
             opacity=".2"
             id="rect18" />
          <rect
             transform="scale(-1,1)"
             x="-640"
             y="-48"
             width="160"
             height="160"
             ry="78.852"
             color="#000000"
             enable-background="new"
             filter="url(#b)"
             opacity=".1"
             stroke="#000"
             stroke-width="10"
             id="rect20" />
          <path
             transform="translate(0,-244)"
             d="m320 208c-8.864 0-16 7.1359-16 16v2c0-8.8641 7.136-16 16-16h248c8.864 0 16 7.1359 16 16v-2c0-8.8641-7.136-16-16-16z"
             opacity=".2"
             id="path22" />
        </g>
        <rect
           transform="scale(-1,1)"
           x="-640"
           y="-52"
           width="160"
           height="160"
           ry="78.852"
           color="#000000"
           enable-background="new"
           fill="#fff"
           id="rect26" />
        <path
           transform="translate(0,-244)"
           d="m264 48c-13.296 0-24 10.704-24 24v2c0-13.296 10.704-24 24-24h400c13.296 0 24 10.704 24 24v-2c0-13.296-10.704-24-24-24z"
           fill="#fff"
           opacity=".4"
           id="path28" />
        <path
           d="m264 252c-13.296 0-24-10.704-24-24v-2c0 13.296 10.704 24 24 24h400c13.296 0 24-10.704 24-24v2c0 13.296-10.704 24-24 24z"
           opacity=".1"
           id="path30" />
        <path
           d="m320 94c-8.864 0-16-7.1359-16-16v-2c0 8.8641 7.136 16 16 16h248c8.864 0 16-7.1359 16-16v2c0 8.8641-7.136 16-16 16z"
           fill="#fff"
           opacity=".2"
           id="path32" />
      </g>
    </g>
  </g>
  <path
     style="opacity:0.96;fill:#00ffff;fill-opacity:0.976471;stroke-width:1.16895"
     d="m 105.3475,317.70896 c -2.17212,-1.07005 -4.93179,-3.55671 -6.132616,-5.52589 -2.045477,-3.3543 -2.18359,-6.87284 -2.187683,-55.73319 -0.0043,-51.12123 0.04392,-52.21425 2.436743,-55.25623 5.390126,-6.85243 0.913516,-6.56351 101.697326,-6.56351 h 92.56504 l -5.36482,5.73543 c -19.01803,20.33181 -26.94046,49.54136 -21.20619,78.18599 2.03294,10.1553 9.81662,27.09415 16.36046,35.60369 l 4.26988,5.55251 -89.24442,-0.0267 c -80.85057,-0.0241 -89.61587,-0.2096 -93.19372,-1.97218 z"
     id="path1323" />
</svg>
