<?xml version="1.0" encoding="UTF-8" standalone="no"?>
<svg
   width="512"
   height="512"
   enable-background="new"
   version="1.0"
   id="svg41"
   sodipodi:docname="glade.svg"
   inkscape:version="1.1 (c68e22c387, 2021-05-23)"
   xmlns:inkscape="http://www.inkscape.org/namespaces/inkscape"
   xmlns:sodipodi="http://sodipodi.sourceforge.net/DTD/sodipodi-0.dtd"
   xmlns="http://www.w3.org/2000/svg"
   xmlns:svg="http://www.w3.org/2000/svg">
  <sodipodi:namedview
     id="namedview43"
     pagecolor="#ffffff"
     bordercolor="#666666"
     borderopacity="1.0"
     inkscape:pageshadow="2"
     inkscape:pageopacity="0.0"
     inkscape:pagecheckerboard="0"
     showgrid="false"
     inkscape:zoom="0.85546875"
     inkscape:cx="255.41553"
     inkscape:cy="256"
     inkscape:window-width="1366"
     inkscape:window-height="706"
     inkscape:window-x="0"
     inkscape:window-y="0"
     inkscape:window-maximized="1"
     inkscape:current-layer="svg41" />
  <defs
     id="defs11">
    <filter
       id="a"
       x="-0.038636364"
       y="-0.030357143"
       width="1.0772727"
       height="1.0607143"
       color-interpolation-filters="sRGB">
      <feGaussianBlur
         stdDeviation="4"
         id="feGaussianBlur2" />
    </filter>
    <filter
       id="b"
       x="-0.022285713"
       y="-0.025999999"
       width="1.0445714"
       height="1.052"
       color-interpolation-filters="sRGB">
      <feGaussianBlur
         stdDeviation="4.16"
         id="feGaussianBlur5" />
    </filter>
    <filter
       id="c"
       x="-0.064642855"
       y="-0.087648129"
       width="1.1444934"
       height="1.1630649"
       color-interpolation-filters="sRGB">
      <feGaussianBlur
         stdDeviation="10.4"
         id="feGaussianBlur8" />
    </filter>
  </defs>
  <g
     transform="translate(0,212)"
     id="g39">
    <g
       id="g37">
      <g
         transform="translate(-208,16)"
         id="g35">
        <g
           id="g19">
          <path
             d="m640 230v-400c0-13.296-10.704-24-24-24h-304c-13.296 0-24 10.704-24 24v400c0 13.296 10.704 24 24 24h304c13.296 0 24-10.704 24-24z"
             opacity=".2"
             id="path13" />
          <path
             d="m640 232v-400c0-13.296-10.704-24-24-24h-304c-13.296 0-24 10.704-24 24v400c0 13.296 10.704 24 24 24h304c13.296 0 24-10.704 24-24z"
             filter="url(#a)"
             opacity=".1"
             stroke="#000"
             stroke-width="8"
             id="path15" />
          <path
             d="m640 232v-400c0-13.296-10.704-24-24-24h-304c-13.296 0-24 10.704-24 24v400c0 13.296 10.704 24 24 24h304c13.296 0 24-10.704 24-24z"
             filter="url(#a)"
             opacity=".2"
             id="path17" />
        </g>
        <path
           d="m640 228v-400c0-13.296-10.704-24-24-24h-304c-13.296 0-24 10.704-24 24v400c0 13.296 10.704 24 24 24h304c13.296 0 24-10.704 24-24z"
           fill="#ececec"
           id="path21" />
        <path
           d="m312-196c-13.296 0-24 10.704-24 24v2c0-13.296 10.704-24 24-24h304c13.296 0 24 10.704 24 24v-2c0-13.296-10.704-24-24-24z"
           fill="#fff"
           opacity=".1"
           id="path23" />
        <path
           d="m240-160v360c0 24 24 24 24 24h424zm80 173.94 151.74 130.06h-151.74z"
           filter="url(#b)"
           opacity=".2"
           id="path25" />
        <path
           d="m240-152v360c0 24 24 24 24 24h424zm80 173.94 151.74 130.06h-151.74z"
           filter="url(#c)"
           opacity=".2"
           stroke="#000"
           stroke-width="8"
           id="path27" />
        <path
           d="m240-164v360c0 24 24 24 24 24h424zm80 173.94 151.74 130.06h-151.74z"
           fill="#009688"
           opacity=".8"
           id="path29"
           style="fill:#adff2f;opacity:0.96" />
        <path
           d="m688 220-2.334-2h-421.67s-24 0-24-24v2c0 24 24 24 24 24zm-216.26-82-151.74-130.06v2l149.41 128.06z"
           opacity=".1"
           id="path31" />
        <path
           d="m240-164v2l445.67 382h2.334zm80 304v2h151.74l-2.334-2z"
           fill="#fff"
           opacity=".2"
           id="path33" />
      </g>
    </g>
  </g>
</svg>
