<?xml version="1.0" encoding="UTF-8" standalone="no"?>
<svg
   width="512"
   height="512"
   enable-background="new"
   version="1.0"
   id="svg34"
   sodipodi:docname="gnome-documents.svg"
   inkscape:version="1.1 (c68e22c387, 2021-05-23)"
   xmlns:inkscape="http://www.inkscape.org/namespaces/inkscape"
   xmlns:sodipodi="http://sodipodi.sourceforge.net/DTD/sodipodi-0.dtd"
   xmlns="http://www.w3.org/2000/svg"
   xmlns:svg="http://www.w3.org/2000/svg">
  <sodipodi:namedview
     id="namedview36"
     pagecolor="#ffffff"
     bordercolor="#666666"
     borderopacity="1.0"
     inkscape:pageshadow="2"
     inkscape:pageopacity="0.0"
     inkscape:pagecheckerboard="0"
     showgrid="false"
     inkscape:zoom="0.85546875"
     inkscape:cx="256"
     inkscape:cy="256"
     inkscape:window-width="1221"
     inkscape:window-height="620"
     inkscape:window-x="45"
     inkscape:window-y="29"
     inkscape:window-maximized="0"
     inkscape:current-layer="svg34" />
  <defs
     id="defs8">
    <filter
       id="b"
       x="-0.03968421"
       y="-0.032782608"
       width="1.0793684"
       height="1.0655652"
       color-interpolation-filters="sRGB">
      <feGaussianBlur
         stdDeviation="3.36"
         id="feGaussianBlur2" />
    </filter>
    <filter
       id="a"
       x="-0.03968421"
       y="-0.032782608"
       width="1.0793684"
       height="1.0655652"
       color-interpolation-filters="sRGB">
      <feGaussianBlur
         stdDeviation="3.36"
         id="feGaussianBlur5" />
    </filter>
  </defs>
  <g
     transform="translate(0,212)"
     id="g32">
    <g
       id="g30">
      <g
         transform="translate(-208,16)"
         id="g28">
        <rect
           x="368"
           y="-192"
           width="304"
           height="368"
           rx="16"
           ry="16"
           filter="url(#a)"
           opacity=".1"
           stroke="#000"
           stroke-width="8"
           id="rect10" />
        <rect
           x="368"
           y="-192"
           width="304"
           height="368"
           rx="16"
           ry="16"
           filter="url(#a)"
           opacity=".2"
           id="rect12" />
        <rect
           x="368"
           y="-196"
           width="304"
           height="368"
           rx="16"
           ry="16"
           fill="#d8d8d8"
           id="rect14"
           style="fill:#f0e68c;opacity:0.96;fill-opacity:0.97647059" />
        <path
           d="m384-196c-8.864 0-16 7.136-16 16v2c0-8.864 7.136-16 16-16h272c8.864 0 16 7.136 16 16v-2c0-8.864-7.136-16-16-16z"
           fill="#fff"
           opacity=".4"
           id="path16" />
        <rect
           x="256"
           y="-112"
           width="304"
           height="368"
           rx="16"
           ry="16"
           filter="url(#b)"
           opacity=".1"
           stroke="#000"
           stroke-width="8"
           id="rect18" />
        <rect
           x="256"
           y="-112"
           width="304"
           height="368"
           rx="16"
           ry="16"
           filter="url(#b)"
           opacity=".2"
           id="rect20" />
        <rect
           x="256"
           y="-116"
           width="304"
           height="368"
           rx="16"
           ry="16"
           fill="#ebebeb"
           id="rect22"
           style="fill:#ffd700;opacity:0.96;fill-opacity:0.97647059" />
        <path
           d="m272-116c-8.864 0-16 7.136-16 16v2c0-8.864 7.136-16 16-16h272c8.864 0 16 7.136 16 16v-2c0-8.864-7.136-16-16-16z"
           fill="#fff"
           opacity=".4"
           id="path24" />
        <path
           d="m304-52v16h128v-16zm0 48v16h208v-16zm0 48v16h208v-16zm0 48v16h208v-16z"
           enable-background="new"
           opacity=".2"
           id="path26"
           style="fill:#f0e68c;opacity:0.96;fill-opacity:0.97647059" />
      </g>
    </g>
  </g>
</svg>
