<?xml version="1.0" encoding="UTF-8" standalone="no"?>
<svg
   width="512"
   height="512"
   enable-background="new"
   version="1.0"
   id="svg38"
   sodipodi:docname="gnome-mahjongg.svg"
   inkscape:version="1.1 (c68e22c387, 2021-05-23)"
   xmlns:inkscape="http://www.inkscape.org/namespaces/inkscape"
   xmlns:sodipodi="http://sodipodi.sourceforge.net/DTD/sodipodi-0.dtd"
   xmlns="http://www.w3.org/2000/svg"
   xmlns:svg="http://www.w3.org/2000/svg">
  <sodipodi:namedview
     id="namedview40"
     pagecolor="#ffffff"
     bordercolor="#666666"
     borderopacity="1.0"
     inkscape:pageshadow="2"
     inkscape:pageopacity="0.0"
     inkscape:pagecheckerboard="0"
     showgrid="false"
     inkscape:zoom="0.85546875"
     inkscape:cx="255.41553"
     inkscape:cy="256"
     inkscape:window-width="1366"
     inkscape:window-height="706"
     inkscape:window-x="0"
     inkscape:window-y="0"
     inkscape:window-maximized="1"
     inkscape:current-layer="svg38" />
  <defs
     id="defs8">
    <filter
       id="b"
       x="-0.03968421"
       y="-0.032782608"
       width="1.0793684"
       height="1.0655652"
       color-interpolation-filters="sRGB">
      <feGaussianBlur
         stdDeviation="3.36"
         id="feGaussianBlur2" />
    </filter>
    <filter
       id="a"
       x="-0.03968421"
       y="-0.032782608"
       width="1.0793684"
       height="1.0655652"
       color-interpolation-filters="sRGB">
      <feGaussianBlur
         stdDeviation="3.36"
         id="feGaussianBlur5" />
    </filter>
  </defs>
  <g
     transform="translate(0,212)"
     id="g36">
    <g
       id="g34">
      <g
         transform="translate(-208,16)"
         id="g32">
        <g
           id="g22">
          <rect
             x="368"
             y="-192"
             width="304"
             height="368"
             rx="16"
             ry="16"
             filter="url(#a)"
             opacity=".1"
             stroke="#000"
             stroke-width="8"
             id="rect10" />
          <rect
             x="368"
             y="-192"
             width="304"
             height="368"
             rx="16"
             ry="16"
             filter="url(#a)"
             opacity=".2"
             id="rect12" />
          <rect
             x="368"
             y="-196"
             width="304"
             height="368"
             rx="16"
             ry="16"
             fill="#d8d8d8"
             id="rect14" />
          <path
             d="m384-196c-8.864 0-16 7.136-16 16v2c0-8.864 7.136-16 16-16h272c8.864 0 16 7.136 16 16v-2c0-8.864-7.136-16-16-16z"
             fill="#fff"
             opacity=".2"
             id="path16" />
          <rect
             x="256"
             y="-112"
             width="304"
             height="368"
             rx="16"
             ry="16"
             filter="url(#b)"
             opacity=".1"
             stroke="#000"
             stroke-width="8"
             id="rect18" />
          <rect
             x="256"
             y="-112"
             width="304"
             height="368"
             rx="16"
             ry="16"
             filter="url(#b)"
             opacity=".2"
             id="rect20" />
        </g>
        <path
           d="m523.55-8.2381 0.4185-26.76 18.397-1.254-1.254-10.035-17.143 5.0174v-23.833c10.035 1.254 20.906 3.345 29.686 3.763 17.979 1.254-5.0174 58.955-5.0174 58.955s68.153-60.209 10.871-75.679c-5.8536 0-20.488 0.83702-35.122 1.6725v-16.307l31.359-7.9443-31.359-0.417v-16.725l-19.233-14.216 2.0906 36.376-16.725 11.289 17.143-4.1814 0.837 13.38c-7.5261 0.837-14.216 1.254-17.979 2.0904-48.084 9.1986 4.1811 71.917 4.1811 71.917s-16.725-58.537 2.0907-63.972c3.763-1.254 7.5261-1.254 12.125-1.254l1.6725 29.268-12.544 3.763 12.544-0.837 0.837 17.143c-38.467 50.593-82.369 69.408-82.369 69.408s42.648-4.5993 83.624-49.756l4.1812 78.188c-15.47-6.2718-29.268-15.052-29.268-15.052s10.035 29.686 31.359 42.23l17.979-21.324c-4.1812-0.837-8.7804-2.0907-13.38-3.763l0.837-79.025c11.289 13.38 37.631 43.903 48.92 45.993l37.631-12.543c-14.634-2.5088-74.007-37.213-87.387-45.575z"
           fill="#101040"
           id="path24" />
        <rect
           x="256"
           y="-116"
           width="304"
           height="368"
           rx="16"
           ry="16"
           fill="#ebebeb"
           id="rect26" />
        <path
           d="m272-116c-8.864 0-16 7.136-16 16v2c0-8.864 7.136-16 16-16h272c8.864 0 16 7.136 16 16v-2c0-8.864-7.136-16-16-16z"
           fill="#fff"
           opacity=".2"
           id="path28" />
        <path
           d="m390.58-52.979c-1.5791 1.579-1.9738 3.9474-1.9738 6.7106 0 5.1314 1.5791 11.447 2.3686 13.816 0 0 1.1844 27.632 1.5788 30.789-3.5527 0.3948-9.8684 0.7884-12.237 1.579h-3.1579c-6.7104 0.3948-13.026 0.7884-15.789 3.5526l-1.1844 1.1844 1.1844 1.579c1.9738 2.3684 2.7632 9.079 3.5526 16.184 1.9738 14.605 4.3422 32.763 16.184 39.868l2.3686 1.1844 0.7896-2.3686s0.3948-1.1844 0.3948-2.7631c0-1.1844-0.3948-3.1579-0.7896-5.921 3.1579 0.3948 9.8684 1.1844 12.237 1.1844 0.3936 3.1579 10.658 131.84 10.658 131.84h3.9474s4.3421-127.11 4.3421-131.05c2.7631 0 15 0.3948 18.553 0.7896-0.7896 2.3684-3.9474 12.237-3.9474 12.237l5.5262-5.1316c1.5791-1.1844 35.921-32.369 31.184-52.895-1.5788-6.7105-7.1052-11.447-16.184-13.816h-0.78839c-5.1316 0-20.921 0.3948-32.763 1.1844 0.3948-10.263 0.3948-15.789 0.3948-18.553v-3.1579-0.3948c0-1.9735 1.9736-4.7369 3.5526-6.7105 1.5788-2.3684 3.5526-4.3421 3.5526-6.7105 0-0.7896-0.3948-1.579-0.7896-2.3684-2.3682-3.5526-19.737-12.632-27.237-13.421-3.1578 0-4.7369 0.3948-5.5264 1.579zm0.3948 64.737h1.9738c0 3.5526 1.1844 28.421 1.579 31.974-3.1579-0.3948-10.658-1.1844-13.026-1.1844-1.1844-5.1317-1.579-10.658-1.9738-16.184-0.3948-4.7368-0.7884-9.4736-1.5788-13.816 3.5526 0 13.026-0.7884 13.026-0.7884zm24.079 12.237s0.3936-9.4736 0.3936-12.632c5.1316 0.7896 11.842 1.1844 18.158 1.1844h7.1053c0 1.5788-0.3948 3.5526-0.3948 3.5526-0.7896 8.6842-1.9735 18.947-5.5261 29.211-2.3686 0-16.974-0.7884-20.132-1.1844 0-2.7632 0.3948-20.132 0.3948-20.132z"
           fill="#ba0000"
           id="path30" />
      </g>
    </g>
  </g>
  <path
     style="opacity:0.284981;fill:#fff5ee;fill-opacity:0.976471;stroke-width:1.16895"
     d="m 60.249636,479.0106 c -1.259046,-0.32499 -3.521549,-1.39837 -5.027783,-2.38529 -6.442756,-4.22146 -6.100924,5.81202 -6.137518,-180.14892 -0.0186,-94.51591 0.107899,-172.50811 0.281107,-173.31598 0.444045,-2.07111 5.828555,-6.55967 9.58006,-7.98599 4.380231,-1.66536 277.509578,-1.66536 281.889808,0 3.74669,1.42449 9.02633,5.82534 9.84962,8.21017 1.22776,3.55642 1.19972,340.3244 -0.0288,344.88645 -0.79733,2.96104 -2.67242,5.61889 -5.46906,7.75213 l -4.25572,3.24624 -139.19629,0.16603 C 125.1771,479.52674 61.508634,479.33554 60.249586,479.0106 Z M 203.77267,397.73516 c 0.40152,-9.16164 1.30195,-36.90959 2.00098,-61.6621 0.69902,-24.75251 1.5262,-46.71416 1.83815,-48.80365 l 0.5672,-3.79909 h 8.12967 c 4.47133,0 8.12969,0.45989 8.12969,1.02198 0,0.56209 -0.79466,3.27428 -1.76591,6.02709 -0.97125,2.75282 -1.531,5.24003 -1.24388,5.52713 1.15164,1.15165 22.71862,-21.90737 28.14643,-30.09363 13.32767,-20.10091 13.1122,-32.88916 -0.67584,-40.11178 l -6.24826,-3.27304 -16.70445,0.81212 -16.70444,0.81211 0.005,-10.982 c 0.005,-10.2395 0.24176,-11.33764 3.50218,-16.24226 1.92326,-2.89315 3.49909,-6.41707 3.50184,-7.83093 0.006,-3.27859 -5.37247,-7.40692 -15.85652,-12.17006 -9.70033,-4.40708 -16.29745,-4.97027 -18.83109,-1.60759 -1.81207,2.405 -1.81331,2.36416 0.77691,25.6999 0.57091,5.14338 1.07111,12.82901 1.11156,17.07919 l 0.0735,7.72758 -6.13699,0.73714 c -3.37534,0.40543 -7.97808,0.74465 -10.22831,0.75382 -4.42564,0.018 -11.25359,1.69605 -13.96093,3.43097 -1.41585,0.9073 -1.44486,1.61114 -0.18053,4.37937 0.82854,1.81407 2.5133,9.87367 3.74391,17.9102 3.00053,19.59501 6.00929,28.34233 11.70934,34.04237 2.49313,2.49314 5.26498,4.53297 6.15966,4.53297 2.00136,0 3.21519,-4.37267 2.24437,-8.08508 -0.70462,-2.69446 -0.59575,-2.73577 5.01026,-1.90107 3.15181,0.46928 5.77098,0.93554 5.82039,1.03613 0.0495,0.10065 2.33837,29.1144 5.08655,64.47513 2.74818,35.36073 5.18987,64.94977 5.42598,65.75343 0.23609,0.80365 1.41805,1.46118 2.62655,1.46118 2.01346,0 2.25835,-1.39356 2.92731,-16.65753 z"
     id="path912" />
  <path
     style="opacity:0.284981;fill:#fff5ee;fill-opacity:0.976471;stroke-width:1.16895"
     d="m 361.20548,338.4625 v -60.81074 l 2.63014,0.2004 c 1.44657,0.11023 11.03478,-2.60938 21.30711,-6.04353 16.35232,-5.46676 18.31651,-6.38623 15.78082,-7.38732 -1.59288,-0.62886 -11.18108,-5.11028 -21.30711,-9.95871 l -18.41096,-8.81533 v -20.41422 -20.41419 l 4.67299,-7.39918 c 6.54205,-10.3586 9.86718,-20.97051 8.81983,-28.14784 -0.69821,-4.78471 -1.74083,-6.4963 -7.02302,-11.52916 l -6.20309,-5.91031 -0.42767,-13.4724 c -0.39908,-12.57169 -0.6632,-13.85336 -3.95049,-19.17043 -2.56414,-4.14741 -5.22431,-6.58689 -9.77524,-8.96433 -5.82221,-3.04156 -7.20786,-3.26631 -20.13821,-3.26631 H 313.2948 l -7.89854,-5.80805 -7.89854,-5.808053 -0.35333,5.808053 -0.35333,5.80805 h -68.32247 -68.32247 l -0.18521,-27.762553 c -0.10187,-15.269406 -0.085,-28.814612 0.0376,-30.100457 0.42356,-4.444694 4.37214,-10.314462 8.38931,-12.47113 3.87024,-2.077789 9.70223,-2.152566 145.1064,-1.860531 l 141.07408,0.304264 3.55642,3.407425 c 1.95604,1.874084 4.10693,5.075467 4.77977,7.114186 0.82438,2.497878 1.30973,59.502366 1.48821,174.791166 0.14568,94.09642 -0.0674,169.53614 -0.47355,167.64381 -0.58917,-2.74527 -0.76635,-2.90559 -0.87671,-0.7933 -0.0761,1.45601 -1.93853,4.61218 -4.13882,7.0137 l -4.00051,4.36639 -46.84881,0.33067 -46.84879,0.33069 z"
     id="path951" />
</svg>
