<?xml version="1.0" encoding="UTF-8" standalone="no"?>
<svg
   width="512"
   height="512"
   enable-background="new"
   version="1.0"
   id="svg37"
   sodipodi:docname="libreoffice-base.svg"
   inkscape:version="1.1 (c68e22c387, 2021-05-23)"
   xmlns:inkscape="http://www.inkscape.org/namespaces/inkscape"
   xmlns:sodipodi="http://sodipodi.sourceforge.net/DTD/sodipodi-0.dtd"
   xmlns="http://www.w3.org/2000/svg"
   xmlns:svg="http://www.w3.org/2000/svg">
  <sodipodi:namedview
     id="namedview39"
     pagecolor="#ffffff"
     bordercolor="#666666"
     borderopacity="1.0"
     inkscape:pageshadow="2"
     inkscape:pageopacity="0.0"
     inkscape:pagecheckerboard="0"
     showgrid="false"
     inkscape:zoom="0.85546875"
     inkscape:cx="256"
     inkscape:cy="256"
     inkscape:window-width="1366"
     inkscape:window-height="706"
     inkscape:window-x="0"
     inkscape:window-y="0"
     inkscape:window-maximized="1"
     inkscape:current-layer="svg37" />
  <defs
     id="defs11">
    <filter
       id="i"
       x="-0.025999999"
       y="-0.022285713"
       width="1.052"
       height="1.0445714"
       color-interpolation-filters="sRGB">
      <feGaussianBlur
         stdDeviation="4.16"
         id="feGaussianBlur2" />
    </filter>
    <filter
       id="h"
       x="-0.025999999"
       y="-0.022285713"
       width="1.052"
       height="1.0445714"
       color-interpolation-filters="sRGB">
      <feGaussianBlur
         stdDeviation="4.16"
         id="feGaussianBlur5" />
    </filter>
    <filter
       id="d"
       x="-0.065999795"
       y="-0.055000001"
       width="1.1319996"
       height="1.11"
       color-interpolation-filters="sRGB">
      <feGaussianBlur
         stdDeviation="8.8"
         id="feGaussianBlur8" />
    </filter>
  </defs>
  <g
     transform="translate(-208,3268)"
     id="g35">
    <path
       d="m656-2810v-400c0-13.296-10.704-24-24-24h-336c-13.296 0-24 10.704-24 24v400c0 13.296 10.704 24 24 24h336c13.296 0 24-10.704 24-24z"
       opacity=".2"
       id="path13" />
    <path
       d="m656-2808v-400c0-13.296-10.704-24-24-24h-336c-13.296 0-24 10.704-24 24v400c0 13.296 10.704 24 24 24h336c13.296 0 24-10.704 24-24z"
       filter="url(#h)"
       opacity=".2"
       id="path15" />
    <path
       d="m656-2808v-400c0-13.296-10.704-24-24-24h-336c-13.296 0-24 10.704-24 24v400c0 13.296 10.704 24 24 24h336c13.296 0 24-10.704 24-24z"
       filter="url(#i)"
       opacity=".1"
       id="path17" />
    <path
       d="m656-2812v-400c0-13.296-10.704-24-24-24h-336c-13.296 0-24 10.704-24 24v400c0 13.296 10.704 24 24 24h336c13.296 0 24-10.704 24-24z"
       fill="#e91e63"
       id="path19" />
    <path
       d="m308-3198c-2.216 0-4 1.784-4 4v376c0 2.216 1.784 4 4 4h312c2.216 0 3.9834-1.7841 4-4v-267.03l-112.97-112.97zm236.97 0 79.031 79.031v-75.031c0-2.216-1.784-4-4-4z"
       filter="url(#d)"
       opacity=".2"
       id="path21" />
    <path
       d="m308-3204c-2.216 0-4 1.784-4 4v376c0 2.216 1.784 4 4 4h312c2.216 0 3.9834-1.7841 4-4v-267.03l-112.97-112.97zm236.97 0 79.031 79.031v-75.031c0-2.216-1.784-4-4-4z"
       fill="#f5f5f5"
       id="path23" />
    <path
       transform="translate(0,-244)"
       d="m296-2992c-13.296 0-24 10.704-24 24v2c0-13.296 10.704-24 24-24h336c13.296 0 24 10.704 24 24v-2c0-13.296-10.704-24-24-24z"
       fill="#fff"
       opacity=".2"
       id="path25" />
    <g
       transform="translate(0,16)"
       fill="#ccc"
       id="g33">
      <path
         transform="translate(0,-244)"
         d="m360-2672c-4.432 0-8 3.568-8 8v32c0 4.432 3.568 8 8 8h208c4.432 0 8-3.568 8-8v-32c0-4.432-3.568-8-8-8zm8 16h192v16h-192z"
         id="path27" />
      <path
         d="m360-2980c-4.432 0-8 3.568-8 8v32c0 4.432 3.568 8 8 8h208c4.432 0 8-3.568 8-8v-32c0-4.432-3.568-8-8-8zm8 16h192v16h-192z"
         id="path29" />
      <path
         d="m360-3044c-4.432 0-8 3.568-8 8v32c0 4.432 3.568 8 8 8h208c4.432 0 8-3.568 8-8v-32c0-4.432-3.568-8-8-8zm8 16h192v16h-192z"
         id="path31" />
    </g>
  </g>
  <path
     style="fill:#e91e63;fill-opacity:1;stroke-width:1.16895"
     d="m 146.88437,284.83946 c -1.63027,-1.80143 -1.9346,-5.07618 -1.9346,-20.81767 0,-14.28786 0.39012,-19.21349 1.6592,-20.94905 1.62164,-2.21773 4.09742,-2.26909 109.39103,-2.26909 105.29361,0 107.7694,0.0514 109.39103,2.26909 1.27085,1.73797 1.6592,6.68889 1.6592,21.15216 0,16.80906 -0.2348,19.09556 -2.13771,20.81767 -1.95637,1.7705 -11.21196,1.9346 -109.11563,1.9346 -102.15392,0 -107.06516,-0.0964 -108.91252,-2.13771 z m 205.89744,-20.94905 0.34344,-8.47488 h -97.07404 -97.07404 v 7.98782 c 0,4.3933 0.35372,8.34154 0.78605,8.77387 0.43233,0.43233 43.96109,0.65151 96.73059,0.48706 l 95.94455,-0.29898 z"
     id="path4446" />
  <path
     style="fill:#e91e63;fill-opacity:1;stroke-width:1.16895"
     d="m 146.88437,349.1317 c -1.63676,-1.8086 -1.9346,-5.12772 -1.9346,-21.55929 0,-18.74456 0.0906,-19.48501 2.598,-21.24129 2.30496,-1.61445 14.53779,-1.8197 108.45223,-1.8197 93.91444,0 106.14727,0.20525 108.45223,1.8197 2.50928,1.75757 2.598,2.48995 2.598,21.4444 0,17.52753 -0.22845,19.83143 -2.13771,21.55929 -1.95637,1.7705 -11.21196,1.9346 -109.11563,1.9346 -102.15392,0 -107.06516,-0.0964 -108.91252,-2.13771 z m 206.13846,-21.24129 v -8.18265 H 256 158.97717 v 8.18265 8.18265 H 256 353.02283 Z"
     id="path4485" />
  <path
     style="fill:#e91e63;fill-opacity:1;stroke-width:1.16895"
     d="m 147.54777,413.74194 c -2.50927,-1.75757 -2.598,-2.48995 -2.598,-21.4444 0,-17.52753 0.22844,-19.83143 2.13771,-21.55929 1.95638,-1.7705 11.21196,-1.9346 109.11563,-1.9346 102.15392,0 107.06516,0.0964 108.91252,2.13771 1.63676,1.8086 1.9346,5.12772 1.9346,21.55929 0,18.74456 -0.0906,19.48501 -2.598,21.24129 -2.30496,1.61445 -14.53779,1.8197 -108.45223,1.8197 -93.91444,0 -106.14727,-0.20525 -108.45223,-1.8197 z M 353.02283,392.18265 V 384 H 256 158.97717 v 8.18265 8.18265 H 256 353.02283 Z"
     id="path4524" />
</svg>
