<?xml version="1.0" encoding="UTF-8" standalone="no"?>
<svg
   width="512"
   height="512"
   enable-background="new"
   version="1.0"
   id="svg28"
   sodipodi:docname="libreoffice-calc.svg"
   inkscape:version="1.1 (c68e22c387, 2021-05-23)"
   xmlns:inkscape="http://www.inkscape.org/namespaces/inkscape"
   xmlns:sodipodi="http://sodipodi.sourceforge.net/DTD/sodipodi-0.dtd"
   xmlns="http://www.w3.org/2000/svg"
   xmlns:svg="http://www.w3.org/2000/svg">
  <sodipodi:namedview
     id="namedview30"
     pagecolor="#ffffff"
     bordercolor="#666666"
     borderopacity="1.0"
     inkscape:pageshadow="2"
     inkscape:pageopacity="0.0"
     inkscape:pagecheckerboard="0"
     showgrid="false"
     inkscape:zoom="0.85546875"
     inkscape:cx="256"
     inkscape:cy="256"
     inkscape:window-width="1366"
     inkscape:window-height="706"
     inkscape:window-x="0"
     inkscape:window-y="0"
     inkscape:window-maximized="1"
     inkscape:current-layer="svg28" />
  <defs
     id="defs8">
    <filter
       id="b"
       x="-0.025999999"
       y="-0.022285713"
       width="1.052"
       height="1.0445714"
       color-interpolation-filters="sRGB">
      <feGaussianBlur
         stdDeviation="4.16"
         id="feGaussianBlur2" />
    </filter>
    <filter
       id="r"
       x="-0.065999795"
       y="-0.055000001"
       width="1.1319996"
       height="1.11"
       color-interpolation-filters="sRGB">
      <feGaussianBlur
         stdDeviation="8.8"
         id="feGaussianBlur5" />
    </filter>
  </defs>
  <g
     transform="translate(-208 868.02)"
     id="g26">
    <path
       d="m656-408.02v-400c0-13.296-10.704-24-24-24h-336c-13.296 0-24 10.704-24 24v400c0 13.296 10.704 24 24 24h336c13.296 0 24-10.704 24-24z"
       filter="url(#b)"
       opacity=".1"
       id="path10" />
    <path
       d="m656-408.02v-400c0-13.296-10.704-24-24-24h-336c-13.296 0-24 10.704-24 24v400c0 13.296 10.704 24 24 24h336c13.296 0 24-10.704 24-24z"
       filter="url(#b)"
       opacity=".2"
       id="path12" />
    <path
       d="m656-410.02v-400c0-13.296-10.704-24-24-24h-336c-13.296 0-24 10.704-24 24v400c0 13.296 10.704 24 24 24h336c13.296 0 24-10.704 24-24z"
       opacity=".2"
       id="path14" />
    <path
       d="m656-412.02v-400c0-13.296-10.704-24-24-24h-336c-13.296 0-24 10.704-24 24v400c0 13.296 10.704 24 24 24h336c13.296 0 24-10.704 24-24z"
       fill="#4caf50"
       id="path16" />
    <path
       d="m308-798.02c-2.216 0-4 1.784-4 4v376c0 2.216 1.784 4 4 4h312c2.216 0 3.9834-1.7841 4-4v-267.03l-112.97-112.97zm236.97 0 79.031 79.031v-75.031c0-2.216-1.784-4-4-4z"
       filter="url(#r)"
       opacity=".2"
       id="path18" />
    <path
       d="m308-804.02c-2.216 0-4 1.784-4 4v376c0 2.216 1.784 4 4 4h312c2.216 0 3.9834-1.7841 4-4v-267.03l-112.97-112.97zm236.97 0 79.031 79.031v-75.031c0-2.216-1.784-4-4-4z"
       fill="#f5f5f5"
       id="path20" />
    <path
       transform="translate(0,-244)"
       d="m296-592.02c-13.296 0-24 10.704-24 24v2c0-13.296 10.704-24 24-24h336c13.296 0 24 10.704 24 24v-2c0-13.296-10.704-24-24-24z"
       fill="#fff"
       opacity=".2"
       id="path22" />
    <path
       d="m368-468h192v-160h-192zm16-144h48v32h-48zm64 0h96v32h-96zm-64 48h48v32h-48zm64 0h96v32h-96zm-64 48h48v32h-48zm64 0h96v32h-96z"
       enable-background="new"
       fill="#ccc"
       filter="url(#filter14069)"
       id="path24" />
  </g>
  <path
     style="fill:#4cae50;fill-opacity:1;stroke-width:1.16895"
     d="M 160.14612,319.70776 V 240.21918 H 256 351.85388 v 79.48858 79.48859 H 256 160.14612 Z m 64.29224,47.92694 V 351.26941 H 199.89041 175.34247 V 367.6347 384 h 24.54794 24.54795 z m 112.21917,0 V 351.26941 H 288.14612 239.6347 V 367.6347 384 h 48.51142 48.51141 z M 224.43836,319.70776 v -16.36529 h -24.54795 -24.54794 v 16.36529 16.3653 h 24.54794 24.54795 z m 112.21917,0 V 303.34247 H 288.14612 239.6347 v 16.36529 16.3653 h 48.51142 48.51141 z M 224.43836,271.78082 v -16.36529 h -24.54795 -24.54794 v 16.36529 16.3653 h 24.54794 24.54795 z m 112.21917,0 V 255.41553 H 288.14612 239.6347 v 16.36529 16.3653 h 48.51142 48.51141 z"
     id="path4084" />
</svg>
