<?xml version="1.0" encoding="UTF-8" standalone="no"?>
<svg
   width="512"
   height="512"
   enable-background="new"
   version="1.0"
   id="svg41"
   sodipodi:docname="web-slack.svg"
   inkscape:version="1.1 (c68e22c387, 2021-05-23)"
   xmlns:inkscape="http://www.inkscape.org/namespaces/inkscape"
   xmlns:sodipodi="http://sodipodi.sourceforge.net/DTD/sodipodi-0.dtd"
   xmlns="http://www.w3.org/2000/svg"
   xmlns:svg="http://www.w3.org/2000/svg">
  <sodipodi:namedview
     id="namedview43"
     pagecolor="#ffffff"
     bordercolor="#666666"
     borderopacity="1.0"
     inkscape:pageshadow="2"
     inkscape:pageopacity="0.0"
     inkscape:pagecheckerboard="0"
     showgrid="false"
     inkscape:zoom="0.85546875"
     inkscape:cx="399.78082"
     inkscape:cy="256"
     inkscape:window-width="1366"
     inkscape:window-height="706"
     inkscape:window-x="0"
     inkscape:window-y="0"
     inkscape:window-maximized="1"
     inkscape:current-layer="svg41" />
  <defs
     id="defs5">
    <filter
       id="a"
       x="-0.024"
       y="-0.024"
       width="1.048"
       height="1.048"
       color-interpolation-filters="sRGB">
      <feGaussianBlur
         stdDeviation="4.48"
         id="feGaussianBlur2" />
    </filter>
  </defs>
  <g
     transform="translate(0,212)"
     id="g15">
    <rect
       transform="matrix(0,-1,-1,0,-208,16)"
       x="-256"
       y="-688"
       width="448"
       height="448"
       rx="36"
       ry="36"
       filter="url(#a)"
       opacity=".2"
       id="rect7" />
    <rect
       transform="matrix(0,-1,-1,0,0,0)"
       x="-270"
       y="-480"
       width="448"
       height="448"
       rx="36"
       ry="36"
       opacity=".2"
       id="rect9" />
    <rect
       transform="matrix(0,-1,-1,0,-208,16)"
       x="-256"
       y="-688"
       width="448"
       height="448"
       rx="36"
       ry="36"
       filter="url(#a)"
       opacity=".1"
       id="rect11" />
    <rect
       transform="matrix(0,-1,-1,0,-208,16)"
       x="-256"
       y="-688"
       width="448"
       height="448"
       rx="36"
       ry="36"
       fill="#fff"
       opacity=".1"
       id="rect13" />
  </g>
  <g
     transform="translate(-208,224)"
     id="g35">
    <rect
       transform="rotate(-16)"
       x="330.51"
       y="47.015"
       width="215.59"
       height="215.59"
       color="#000000"
       enable-background="accumulate"
       fill="#f4f1ef"
       stroke="#f4f1ef"
       stroke-width="2"
       id="rect17" />
    <path
       transform="translate(208,-228)"
       d="m68.131 178.76c-12.707-0.02043-24.753 0.56762-36.131 1.7734v263.67c52.79-3.1189 105.24-8.1027 150.1-54.869l-59.426-207.24c-19.346-2.1876-37.533-3.3066-54.539-3.334z"
       color="#000000"
       enable-background="accumulate"
       fill="#48c39e"
       id="path19" />
    <path
       transform="translate(208,-228)"
       d="m389.33 329.9-207.24 59.426c-8.2479 33.737-6.5997 65 1.4219 94.67h259.56c-2.0068-55.342 0.90076-111.91-53.744-154.1z"
       color="#000000"
       enable-background="accumulate"
       fill="#d81768"
       id="path21" />
    <path
       transform="translate(208,-228)"
       d="m479.88 69.252c-59.505 4.2134-119.7 7.4466-149.97 53.418l59.426 207.24c32.91 6.7947 62.761 5.1744 90.664-1.8047v-256.11c0-0.92594-0.0472-1.8401-0.11523-2.748z"
       color="#000000"
       enable-background="accumulate"
       fill="#ecb524"
       id="path23" />
    <path
       transform="translate(208,-228)"
       d="m68 36c-1.6134 0-3.1978 0.11659-4.7539 0.32031 6.1116 50.947 27.211 99.315 59.418 145.77l207.24-59.426c13.5-34.036 11.899-61.779 3.4336-86.664z"
       color="#000000"
       enable-background="accumulate"
       fill="#81d2e0"
       id="path25" />
    <path
       transform="translate(208,-228)"
       d="m182.09 389.34-150.09 43.037v15.627c0 19.944 16.056 36 36 36h141.24z"
       color="#000000"
       enable-background="accumulate"
       fill="#390f39"
       id="path27" />
    <path
       transform="translate(208,-228)"
       d="m68 36c-19.944 0-36 16.056-36 36v136.09l90.664-25.998-41.889-146.09z"
       color="#000000"
       enable-background="accumulate"
       fill="#20a48e"
       id="path29" />
    <path
       transform="translate(208,-228)"
       d="m305.05 36 24.85 86.664 150.1-43.041v-7.623c0-19.944-16.056-36-36-36z"
       color="#000000"
       enable-background="accumulate"
       fill="#77971f"
       id="path31" />
    <path
       transform="translate(208,-228)"
       d="m480 303.91-90.67 26 44.184 154.09h10.486c19.944 0 36-16.056 36-36z"
       color="#000000"
       enable-background="accumulate"
       fill="#d5100d"
       id="path33" />
  </g>
  <path
     d="m315.86 288.29c-2e-4 15.386-5.0672 27.184-15.201 35.395-10.06 8.2108-24.928 12.316-44.605 12.316-13.611 0-25.446-2.2561-35.506-6.7684-9.9862-4.5122-18.123-11.798-24.41-21.858l24.078-18.419c3.5506 5.0301 6.9163 8.8026 10.097 11.318 3.1807 2.5151 6.9533 4.4753 11.318 5.8807 4.3643 1.4055 9.3943 2.1083 15.09 2.1082 8.5066 1e-4 15.127-1.4424 19.861-4.3273 4.808-2.9588 7.2121-7.4341 7.2122-13.426-1e-4 -3.4026-0.851-6.2505-2.552-8.5437-1.6275-2.293-4.1055-4.2533-7.4341-5.8807-3.3288-1.7013-9.0986-3.6245-17.309-5.7698-7.989-2.1451-15.534-4.2902-22.635-6.4355-7.0273-2.219-13.13-5.0669-18.308-8.5437-5.104-3.4765-9.1354-7.8408-12.094-13.093-2.9588-5.2519-4.4383-11.872-4.4383-19.861 0-14.572 4.9191-25.927 14.757-34.064 9.8382-8.2107 23.93-12.316 42.275-12.316 26.556 1e-4 45.344 9.0986 56.366 27.295l-23.856 18.641c-4.2164-6.5094-8.9506-11.17-14.202-13.981-5.252-2.8108-11.503-4.2162-18.752-4.2164-7.2492 2e-4 -13.167 1.3316-17.753 3.9945-4.5123 2.5891-6.7684 6.6945-6.7684 12.316 0 4.9562 2.367 8.7657 7.1013 11.429 4.7341 2.5891 12.982 5.2151 24.743 7.8779 6.5094 1.7015 12.945 3.5507 19.306 5.5479 6.3614 1.9233 12.02 4.6233 16.976 8.0998 5.0299 3.4768 9.0614 8.026 12.094 13.648 3.0327 5.6219 4.5491 12.834 4.5493 21.637"
     enable-background="new"
     fill="#5a3856"
     id="path37" />
  <path
     d="m68 32c-19.944 0-36 16.056-36 36v2c0-19.944 16.056-36 36-36h376c19.944 0 36 16.056 36 36v-2c0-19.944-16.056-36-36-36z"
     fill="#fff"
     opacity=".2"
     id="path39" />
  <path
     style="opacity:0.284981;fill:#66cdaa;stroke-width:1.16895"
     d="M 320.52996,83.872146 C 315.26327,65.388128 309.93187,46.699034 308.6824,42.340827 l -2.27176,-7.924014 73.2787,0.32584 73.2787,0.32584 6.69136,3.285858 c 11.64228,5.717064 19.61001,18.388645 19.61001,31.187066 0,5.482995 -0.17386,5.795106 -3.79909,6.820005 -2.0895,0.590729 -35.19572,10.083947 -73.56937,21.096041 -38.37366,11.012097 -70.2259,20.021987 -70.78275,20.021987 -0.55685,0 -5.32156,-15.12329 -10.58824,-33.607304 z"
     id="path156" />
  <path
     style="opacity:0.284981;fill:#00fa9a;stroke-width:1.16895"
     d="m 32.988383,131.21461 0.326685,-71.598172 2.637314,-4.935535 c 4.13731,-7.742666 9.238448,-12.815687 16.438073,-16.347465 5.83279,-2.861278 7.979272,-3.258418 17.627748,-3.26147 l 10.98624,-0.0035 19.657467,68.383552 c 10.81161,37.61096 19.96298,69.74889 20.33639,71.41761 l 0.67892,3.03404 -43.608182,12.45455 c -23.984499,6.84999 -44.012991,12.45454 -44.507761,12.45454 -0.494769,0 -0.752571,-32.21918 -0.572894,-71.59818 z"
     id="path232" />
  <path
     style="opacity:0.284981;fill:#87cefa;stroke-width:1.16895"
     d="M 32.730594,315.85328 V 204.45541 l 44.766417,-12.8872 44.766419,-12.8872 29.46381,102.85241 c 16.20509,56.56882 29.28737,103.02884 29.07172,103.24448 -0.42747,0.42747 -146.365202,42.47324 -147.421454,42.47324 -0.355802,0 -0.646912,-50.12904 -0.646912,-111.39786 z"
     id="path308" />
  <path
     style="fill:#00ffff;opacity:0.28498134"
     d="m 122.73973,176.86676 c 0,-0.27597 -9.13634,-32.425 -20.30297,-71.44226 L 82.133801,34.484018 H 193.56535 304.99689 l 2.33205,7.890411 c 1.28261,4.339726 6.74322,23.185596 12.13468,41.87971 l 9.80263,33.989301 -101.10631,28.99851 C 113.83506,180.0317 122.73973,177.52934 122.73973,176.86676 Z"
     id="path421" />
  <path
     style="opacity:0.284981;fill:#ffd700;stroke-width:1.16895"
     d="M 360.26115,222.35906 C 344.04036,165.771 330.91021,119.33627 331.08304,119.17078 c 0.17282,-0.16549 32.66491,-9.5796 72.20463,-20.920251 39.53973,-11.340646 72.81096,-20.894421 73.93607,-21.230611 1.93823,-0.579151 2.04567,5.246113 2.04567,110.918172 v 111.52942 l -37.69863,10.84913 c -20.73425,5.96702 -40.87533,11.76728 -44.75796,12.88946 l -7.05933,2.04035 z"
     id="path497" />
  <path
     style="opacity:0.284981;fill:#ff1493;stroke-width:1.16895"
     d="m 60.474993,478.582 c -7.319555,-1.72446 -13.113222,-5.31124 -18.805062,-11.64193 -6.715034,-7.46874 -8.939337,-14.44633 -8.939337,-28.04252 v -10.13931 l 74.376636,-21.25667 c 40.90715,-11.69117 74.50187,-21.10423 74.65493,-20.91793 0.43569,0.53031 26.31932,91.40972 26.31486,92.39353 -0.006,1.24242 -142.267864,0.86155 -147.602027,-0.39517 z"
     id="path573" />
  <path
     style="opacity:0.284981;fill:#dc143c;stroke-width:1.16895"
     d="m 196.28812,432.79565 -13.43643,-47.05824 102.84015,-29.48247 c 56.56208,-16.21535 103.01593,-29.30668 103.23078,-29.09183 0.33004,0.33004 41.18242,142.34816 43.16585,150.06063 l 0.6764,2.63014 H 321.24471 209.72455 Z"
     id="path649" />
  <path
     style="opacity:0.284981;fill:#0000ff;stroke-width:1.16895"
     d="m 412.10055,403.4314 c -12.12549,-42.19852 -21.83046,-76.89468 -21.5666,-77.10258 0.26386,-0.20791 19.41673,-5.75162 42.56194,-12.31937 23.14521,-6.56775 43.00274,-12.2161 44.12785,-12.5519 1.93316,-0.57695 2.04567,3.46452 2.04567,73.48439 0,84.78599 0.29622,81.85916 -9.35374,92.41776 -7.27466,7.95964 -14.76373,11.35656 -26.86624,12.18608 l -8.90255,0.61019 z"
     id="path725" />
  <path
     style="opacity:0.284981;fill:#9932cc;stroke-width:1.16895"
     d="m 232.8568,332.54031 c -12.08727,-3.16667 -21.4824,-8.55707 -28.92417,-16.59506 -3.50906,-3.79021 -6.38012,-7.31723 -6.38012,-7.83779 0,-0.52058 4.99933,-4.77052 11.10963,-9.44431 l 11.10963,-8.49782 4.54798,5.16678 c 8.61711,9.78956 23.25945,14.88951 38.03021,13.246 14.79751,-1.64649 21.69185,-7.47499 21.70046,-18.34565 0.004,-4.46614 -0.66377,-6.27281 -3.51736,-9.52287 -4.24617,-4.83613 -7.62951,-6.24974 -31.31407,-13.08356 -28.85924,-8.32689 -38.31764,-13.84279 -45.27449,-26.40296 -3.25693,-5.88017 -3.46961,-7.05239 -3.46961,-19.12261 0,-15.21251 1.85256,-20.42051 10.58453,-29.75569 9.95954,-10.64756 23.52028,-15.24888 44.94058,-15.24888 22.28807,0 36.62172,5.16891 48.30767,17.42041 3.64813,3.82469 6.63297,7.43396 6.63297,8.0206 0,0.9081 -16.24572,14.26792 -20.61672,16.95434 -0.94113,0.57842 -3.36979,-1.14355 -6.82955,-4.84231 -7.62468,-8.1514 -14.91124,-11.08627 -27.49437,-11.07412 -15.46374,0.0149 -23.80686,4.60296 -25.19426,13.85474 -1.6352,10.90431 4.23732,15.23619 29.87006,22.03373 29.22871,7.75115 36.01672,10.8783 44.78685,20.6328 7.1308,7.93118 9.53526,15.23411 9.42777,28.63451 -0.18818,23.4589 -12.88169,38.73721 -36.88499,44.39594 -10.83348,2.55397 -34.32677,2.24894 -45.14863,-0.58622 z"
     id="path801" />
</svg>
