<?xml version="1.0" encoding="UTF-8" standalone="no"?>
<svg
   width="512"
   height="512"
   enable-background="new"
   version="1.0"
   id="svg29"
   sodipodi:docname="accessories-paint.svg"
   inkscape:version="1.1 (c68e22c387, 2021-05-23)"
   xmlns:inkscape="http://www.inkscape.org/namespaces/inkscape"
   xmlns:sodipodi="http://sodipodi.sourceforge.net/DTD/sodipodi-0.dtd"
   xmlns="http://www.w3.org/2000/svg"
   xmlns:svg="http://www.w3.org/2000/svg">
  <sodipodi:namedview
     id="namedview31"
     pagecolor="#ffffff"
     bordercolor="#666666"
     borderopacity="1.0"
     inkscape:pageshadow="2"
     inkscape:pageopacity="0.0"
     inkscape:pagecheckerboard="0"
     showgrid="false"
     inkscape:zoom="0.85546875"
     inkscape:cx="255.41553"
     inkscape:cy="256"
     inkscape:window-width="1366"
     inkscape:window-height="706"
     inkscape:window-x="0"
     inkscape:window-y="0"
     inkscape:window-maximized="1"
     inkscape:current-layer="svg29" />
  <defs
     id="defs5">
    <filter
       id="a"
       x="-0.032928968"
       y="-0.032928572"
       width="1.0658579"
       height="1.0658571"
       color-interpolation-filters="sRGB">
      <feGaussianBlur
         stdDeviation="4.48"
         id="feGaussianBlur2" />
    </filter>
  </defs>
  <g
     transform="translate(0,212)"
     id="g27">
    <g
       id="g25">
      <g
         transform="translate(-208,16)"
         id="g23">
        <path
           d="m464-192c-123.7 0-224 100.3-224 224 0 123.7 100.3 224 224 224 20.658 0 37.333-16.676 37.333-37.333 0-9.7067-3.7333-18.418-9.7066-25.138-5.7244-6.4711-9.4578-15.182-9.4578-24.64 0-20.658 16.676-37.333 37.333-37.333h44.053c68.693 0 124.44-55.751 124.44-124.44 0-110.01-100.3-199.11-224-199.11z"
           enable-background="new"
           filter="url(#a)"
           opacity=".1"
           stroke="#000"
           stroke-width="8"
           id="path7" />
        <path
           d="m464-192c-123.7 0-224 100.3-224 224 0 123.7 100.3 224 224 224 20.658 0 37.333-16.676 37.333-37.333 0-9.7067-3.7333-18.418-9.7066-25.138-5.7244-6.4711-9.4578-15.182-9.4578-24.64 0-20.658 16.676-37.333 37.333-37.333h44.053c68.693 0 124.44-55.751 124.44-124.44 0-110.01-100.3-199.11-224-199.11z"
           enable-background="new"
           filter="url(#a)"
           opacity=".2"
           id="path9" />
        <path
           d="m464-194c-123.7 0-224 100.3-224 224 0 123.7 100.3 224 224 224 20.658 0 37.333-16.676 37.333-37.333 0-9.7067-3.7333-18.418-9.7066-25.138-5.7244-6.4711-9.4578-15.182-9.4578-24.64 0-20.658 16.676-37.333 37.333-37.333h44.053c68.693 0 124.44-55.751 124.44-124.44 0-110.01-100.3-199.11-224-199.11z"
           enable-background="new"
           fill="#ebebeb"
           id="path11"
           style="fill:#fffaf0" />
        <circle
           cx="394"
           cy="-92"
           r="40"
           enable-background="new"
           fill="#fec006"
           id="circle13" />
        <circle
           cx="520"
           cy="-108"
           r="40"
           enable-background="new"
           fill="#4bae4f"
           id="circle15" />
        <circle
           cx="328"
           cy="20"
           r="40"
           enable-background="new"
           fill="#f34235"
           id="circle17" />
        <circle
           cx="600"
           cy="-12"
           r="40"
           enable-background="new"
           fill="#2095f2"
           id="circle19" />
        <path
           transform="translate(0,-244)"
           d="m464 48c-123.7 0-224 100.3-224 224 0 0.33431 0.0103 0.66603 0.0117 1 0.54016-123.24 100.62-223 223.99-223 123.34 0 223.41 88.59 223.99 198.16 0.0029-0.34992 0.01367-0.69823 0.01367-1.0488 0-110.01-100.3-199.11-224-199.11zm18.193 361.89c-9e-3 0.33405-0.0254 0.66574-0.0254 1.002 0 9.4578 3.7346 18.17 9.459 24.641 5.7646 6.4852 9.4317 14.828 9.6816 24.127 9e-3 -0.32984 0.0254-0.65829 0.0254-0.99023 0-9.7067-3.7337-18.417-9.707-25.137-5.522-6.2423-9.181-14.572-9.4336-23.643z"
           enable-background="new"
           fill="#fff"
           opacity=".2"
           id="path21" />
      </g>
    </g>
  </g>
</svg>
