<?xml version="1.0" encoding="UTF-8" standalone="no"?>
<svg
   width="512"
   height="512"
   enable-background="new"
   version="1.0"
   id="svg23"
   sodipodi:docname="audacious.svg"
   inkscape:version="1.1 (c68e22c387, 2021-05-23)"
   xmlns:inkscape="http://www.inkscape.org/namespaces/inkscape"
   xmlns:sodipodi="http://sodipodi.sourceforge.net/DTD/sodipodi-0.dtd"
   xmlns="http://www.w3.org/2000/svg"
   xmlns:svg="http://www.w3.org/2000/svg">
  <sodipodi:namedview
     id="namedview25"
     pagecolor="#ffffff"
     bordercolor="#666666"
     borderopacity="1.0"
     inkscape:pageshadow="2"
     inkscape:pageopacity="0.0"
     inkscape:pagecheckerboard="0"
     showgrid="false"
     inkscape:zoom="0.85546875"
     inkscape:cx="255.41553"
     inkscape:cy="256"
     inkscape:window-width="1366"
     inkscape:window-height="706"
     inkscape:window-x="0"
     inkscape:window-y="0"
     inkscape:window-maximized="1"
     inkscape:current-layer="svg23" />
  <defs
     id="defs5">
    <filter
       id="a"
       x="-0.024000001"
       y="-0.024000001"
       width="1.048"
       height="1.048"
       color-interpolation-filters="sRGB">
      <feGaussianBlur
         stdDeviation="4.8"
         id="feGaussianBlur2" />
    </filter>
  </defs>
  <g
     transform="translate(0,212)"
     id="g21">
    <g
       id="g7" />
    <g
       transform="translate(-208,16)"
       id="g19">
      <circle
         cx="464"
         cy="32"
         r="240"
         enable-background="new"
         filter="url(#a)"
         opacity=".1"
         id="circle9" />
      <circle
         cx="464"
         cy="32"
         r="240"
         enable-background="new"
         filter="url(#a)"
         opacity=".2"
         id="circle11" />
      <circle
         cx="464"
         cy="28"
         r="240"
         enable-background="new"
         fill="#232323"
         id="circle13"
         style="fill:#ff8c00;opacity:0.96" />
      <path
         transform="translate(0,-244)"
         d="m 464,32 a 240,240 0 0 0 -240,240 240,240 0 0 0 0.041,1.17188 A 240,240 0 0 1 464,34 240,240 0 0 1 703.95898,272.82812 240,240 0 0 0 704,272 240,240 0 0 0 464,32 Z"
         enable-background="new"
         fill="#fff"
         opacity=".2"
         id="path15" />
      <path
         d="m475.14-79.919c54.321 1.9274 86.457 36.371 90 86.591 3.9943 56.611-13.75 71.351-6.1363 82.727 15.899 23.755-6.6445 29.984-21.591 41.591-9.2965 7.2195-27.235 3.9108-36.136-6.3636-27.05-14.668-16.636 13.514-72.5 13.636-29.041-1.1155-55.661-20.777-63.182-47.273-11.534-40.634 5.3948-70.62 52.5-84.773 13.625-4.0937 40.613-1.6221 52.5-9.7727 11.227-7.6978 7.1951-18.785-6.5909-20.227-19.772-2.0686-50.62 6.349-68.864 2.9545-14.645-2.7248-19.102-28.948-9.5454-40.227 15.639-18.458 55.746-17.653 78.409-18.636 3.8165-0.1656 7.515-0.35579 11.136-0.22732zm-7.2727 121.36c-12.582 0-22.955 8.8105-22.955 19.773 0 10.962 10.373 20 22.955 20 12.582 0 22.5-9.0378 22.5-20 0-10.962-9.9181-19.773-22.5-19.773z"
         color="#000000"
         enable-background="accumulate"
         fill="#fff"
         id="path17" />
    </g>
  </g>
</svg>
