<?xml version="1.0" encoding="UTF-8" standalone="no"?>
<svg
   width="512"
   height="512"
   enable-background="new"
   version="1.0"
   id="svg25"
   sodipodi:docname="bleachbit.svg"
   inkscape:version="1.1 (c68e22c387, 2021-05-23)"
   xmlns:inkscape="http://www.inkscape.org/namespaces/inkscape"
   xmlns:sodipodi="http://sodipodi.sourceforge.net/DTD/sodipodi-0.dtd"
   xmlns="http://www.w3.org/2000/svg"
   xmlns:svg="http://www.w3.org/2000/svg">
  <sodipodi:namedview
     id="namedview27"
     pagecolor="#ffffff"
     bordercolor="#666666"
     borderopacity="1.0"
     inkscape:pageshadow="2"
     inkscape:pageopacity="0.0"
     inkscape:pagecheckerboard="0"
     showgrid="false"
     inkscape:zoom="0.85546875"
     inkscape:cx="256"
     inkscape:cy="256"
     inkscape:window-width="1366"
     inkscape:window-height="706"
     inkscape:window-x="0"
     inkscape:window-y="0"
     inkscape:window-maximized="1"
     inkscape:current-layer="svg25" />
  <defs
     id="defs5">
    <filter
       id="a"
       x="-0.027272727"
       y="-0.021428571"
       width="1.0545455"
       height="1.0428571"
       color-interpolation-filters="sRGB">
      <feGaussianBlur
         stdDeviation="4"
         id="feGaussianBlur2" />
    </filter>
  </defs>
  <g
     transform="translate(0,212)"
     id="g23"
     style="fill:#00ffff">
    <g
       id="g21"
       style="fill:#00ffff">
      <g
         transform="translate(-208,16)"
         id="g19"
         style="fill:#00ffff">
        <g
           id="g13"
           style="fill:#00ffff">
          <path
             d="m312-192c-13.296 0-24 10.704-24 24v328h32v-32h32v32h32v-32h32v32h32v-32h32v32h32v-32h32v32h32v-32h32v32h32v-328c0-13.296-10.704-24-24-24zm296 352h-32v32h32zm0 32v32h32v-32zm0 32h-32v32h32zm-32 0v-32h-32v32zm-32 0h-32v32h32zm-32 0v-32h-32v32zm-32 0h-32v32h32zm-32 0v-32h-32v32zm-32 0h-32v32h32zm-32 0v-32h-32v32zm-32 0h-32v32h32zm-32 0v-32h-32v32zm0-32h32v-32h-32zm64 0h32v-32h-32zm64 0h32v-32h-32zm64 0h32v-32h-32z"
             filter="url(#a)"
             opacity=".1"
             id="path7"
             style="fill:#00ffff" />
          <path
             d="m312-192c-13.296 0-24 10.704-24 24v328h32v-32h32v32h32v-32h32v32h32v-32h32v32h32v-32h32v32h32v-32h32v32h32v-328c0-13.296-10.704-24-24-24zm296 352h-32v32h32zm0 32v32h32v-32zm0 32h-32v32h32zm-32 0v-32h-32v32zm-32 0h-32v32h32zm-32 0v-32h-32v32zm-32 0h-32v32h32zm-32 0v-32h-32v32zm-32 0h-32v32h32zm-32 0v-32h-32v32zm-32 0h-32v32h32zm-32 0v-32h-32v32zm0-32h32v-32h-32zm64 0h32v-32h-32zm64 0h32v-32h-32zm64 0h32v-32h-32z"
             filter="url(#a)"
             opacity=".2"
             id="path9"
             style="fill:#00ffff" />
          <path
             d="m312-194c-13.296 0-24 10.704-24 24v328h32v-32h32v32h32v-32h32v32h32v-32h32v32h32v-32h32v32h32v-32h32v32h32v-328c0-13.296-10.704-24-24-24zm296 352h-32v32h32zm0 32v32h32v-32zm0 32h-32v32h32zm-32 0v-32h-32v32zm-32 0h-32v32h32zm-32 0v-32h-32v32zm-32 0h-32v32h32zm-32 0v-32h-32v32zm-32 0h-32v32h32zm-32 0v-32h-32v32zm-32 0h-32v32h32zm-32 0v-32h-32v32zm0-32h32v-32h-32zm64 0h32v-32h-32zm64 0h32v-32h-32zm64 0h32v-32h-32z"
             opacity=".2"
             id="path11"
             style="fill:#00ffff" />
        </g>
        <path
           transform="translate(0,-244)"
           d="m312 48c-13.296 0-24 10.704-24 24v328h32v-32h32v32h32v-32h32v32h32v-32h32v32h32v-32h32v32h32v-32h32v32h32v-328c0-13.296-10.704-24-24-24zm296 352h-32v32h32zm0 32v32h32v-32zm0 32h-32v32h32zm-32 0v-32h-32v32zm-32 0h-32v32h32zm-32 0v-32h-32v32zm-32 0h-32v32h32zm-32 0v-32h-32v32zm-32 0h-32v32h32zm-32 0v-32h-32v32zm-32 0h-32v32h32zm-32 0v-32h-32v32zm0-32h32v-32h-32zm64 0h32v-32h-32zm64 0h32v-32h-32zm64 0h32v-32h-32z"
           fill="#e6e6e6"
           id="path15"
           style="fill:#00ffff" />
        <path
           d="m312-196c-13.296 0-24 10.704-24 24v2c0-13.296 10.704-24 24-24h304c13.296 0 24 10.704 24 24v-2c0-13.296-10.704-24-24-24z"
           fill="#fff"
           opacity=".1"
           id="path17"
           style="fill:#00ffff" />
      </g>
    </g>
  </g>
</svg>
