<?xml version="1.0" encoding="UTF-8" standalone="no"?>
<svg
   width="512"
   height="512"
   enable-background="new"
   version="1.0"
   id="svg41"
   sodipodi:docname="cantata.svg"
   inkscape:version="1.1 (c68e22c387, 2021-05-23)"
   xmlns:inkscape="http://www.inkscape.org/namespaces/inkscape"
   xmlns:sodipodi="http://sodipodi.sourceforge.net/DTD/sodipodi-0.dtd"
   xmlns="http://www.w3.org/2000/svg"
   xmlns:svg="http://www.w3.org/2000/svg">
  <sodipodi:namedview
     id="namedview43"
     pagecolor="#ffffff"
     bordercolor="#666666"
     borderopacity="1.0"
     inkscape:pageshadow="2"
     inkscape:pageopacity="0.0"
     inkscape:pagecheckerboard="0"
     showgrid="false"
     inkscape:zoom="0.85546875"
     inkscape:cx="255.41553"
     inkscape:cy="256"
     inkscape:window-width="1366"
     inkscape:window-height="706"
     inkscape:window-x="0"
     inkscape:window-y="0"
     inkscape:window-maximized="1"
     inkscape:current-layer="svg41" />
  <defs
     id="defs11">
    <filter
       id="b"
       x="-0.024000001"
       y="-0.024000001"
       width="1.048"
       height="1.048"
       color-interpolation-filters="sRGB">
      <feGaussianBlur
         stdDeviation="4.8"
         id="feGaussianBlur2" />
    </filter>
    <filter
       id="a"
       x="-0.032333334"
       y="-0.032333334"
       width="1.0646667"
       height="1.0646667"
       color-interpolation-filters="sRGB">
      <feGaussianBlur
         stdDeviation="4.8"
         id="feGaussianBlur5" />
    </filter>
    <filter
       id="c"
       x="-0.023999999"
       y="-0.023999999"
       width="1.048"
       height="1.048"
       color-interpolation-filters="sRGB">
      <feGaussianBlur
         stdDeviation="3.84"
         id="feGaussianBlur8" />
    </filter>
  </defs>
  <g
     transform="translate(0,212)"
     id="g39">
    <g
       id="g37">
      <g
         transform="translate(-208,16)"
         id="g35">
        <g
           id="g19">
          <circle
             cx="464"
             cy="32"
             r="240"
             filter="url(#b)"
             opacity=".2"
             id="circle13" />
          <circle
             cx="464"
             cy="30"
             r="240"
             opacity=".2"
             id="circle15" />
          <circle
             cx="464"
             cy="32"
             r="240"
             filter="url(#a)"
             opacity=".1"
             stroke="#000"
             stroke-width="8"
             id="circle17" />
        </g>
        <g
           id="g31">
          <circle
             cx="464"
             cy="28"
             r="240"
             fill="#666"
             id="circle21"
             style="fill:#3f51b5;opacity:0.96;fill-opacity:1" />
          <path
             transform="translate(0,-244)"
             d="m 464,32 a 240,240 0 0 0 -240,240 240,240 0 0 0 0.041,1.17188 A 240,240 0 0 1 464,34 240,240 0 0 1 703.95898,272.82812 240,240 0 0 0 704,272 240,240 0 0 0 464,32 Z"
             fill="#fff"
             opacity=".2"
             id="path23" />
          <circle
             cx="466"
             cy="32"
             r="192"
             filter="url(#c)"
             opacity=".2"
             id="circle25" />
          <circle
             cx="464"
             cy="30"
             r="192"
             opacity=".2"
             id="circle27" />
          <circle
             cx="464"
             cy="28"
             r="192"
             fill="#fff"
             id="circle29" />
        </g>
        <path
           transform="translate(0,-244)"
           d="m464 144v149.48c-7.4945-3.5844-15.693-5.4564-24-5.4805-30.928 0-56 25.072-56 56s25.072 56 56 56 56-25.072 56-56v-168h40v-32h-40z"
           fill="#3f51b5"
           id="path33" />
      </g>
    </g>
  </g>
</svg>
