<?xml version="1.0" encoding="UTF-8" standalone="no"?>
<svg
   width="512"
   height="512"
   enable-background="new"
   version="1.0"
   id="svg27"
   sodipodi:docname="filezilla.svg"
   inkscape:version="1.1 (c68e22c387, 2021-05-23)"
   xmlns:inkscape="http://www.inkscape.org/namespaces/inkscape"
   xmlns:sodipodi="http://sodipodi.sourceforge.net/DTD/sodipodi-0.dtd"
   xmlns="http://www.w3.org/2000/svg"
   xmlns:svg="http://www.w3.org/2000/svg">
  <sodipodi:namedview
     id="namedview29"
     pagecolor="#ffffff"
     bordercolor="#666666"
     borderopacity="1.0"
     inkscape:pageshadow="2"
     inkscape:pageopacity="0.0"
     inkscape:pagecheckerboard="0"
     showgrid="false"
     inkscape:zoom="0.85546875"
     inkscape:cx="255.41553"
     inkscape:cy="256"
     inkscape:window-width="1366"
     inkscape:window-height="706"
     inkscape:window-x="0"
     inkscape:window-y="0"
     inkscape:window-maximized="1"
     inkscape:current-layer="svg27" />
  <defs
     id="defs5">
    <filter
       id="a"
       x="-0.024"
       y="-0.024"
       width="1.048"
       height="1.048"
       color-interpolation-filters="sRGB">
      <feGaussianBlur
         stdDeviation="4.48"
         id="feGaussianBlur2" />
    </filter>
  </defs>
  <g
     transform="translate(0,212)"
     id="g25">
    <g
       id="g7" />
    <g
       transform="translate(-208,16)"
       id="g23">
      <g
         id="g15">
        <rect
           transform="matrix(0,-1,-1,0,0,0)"
           x="-254"
           y="-688"
           width="448"
           height="448"
           rx="36"
           ry="36"
           enable-background="new"
           opacity=".2"
           id="rect9" />
        <rect
           transform="matrix(0,-1,-1,0,0,0)"
           x="-256"
           y="-688"
           width="448"
           height="448"
           rx="36"
           ry="36"
           enable-background="new"
           filter="url(#a)"
           opacity=".1"
           id="rect11" />
        <rect
           transform="matrix(0,-1,-1,0,0,0)"
           x="-256"
           y="-688"
           width="448"
           height="448"
           rx="36"
           ry="36"
           enable-background="new"
           filter="url(#a)"
           opacity=".2"
           id="rect13" />
      </g>
      <rect
         transform="matrix(0,-1,-1,0,0,0)"
         x="-252"
         y="-688"
         width="448"
         height="448"
         rx="36"
         ry="36"
         enable-background="new"
         fill="#b71c1c"
         id="rect17" />
      <path
         transform="translate(0,-244)"
         d="m276 48c-19.944 0-36 16.056-36 36v2c0-19.944 16.056-36 36-36h376c19.944 0 36 16.056 36 36v-2c0-19.944-16.056-36-36-36z"
         enable-background="new"
         fill="#fff"
         opacity=".2"
         id="path19" />
      <path
         d="m374.07-120.32-61.339 269.74h49.838l28.951-120.71h136.05l-127.41 113.06 33.213 37.912 17.012-8.69c32.171-16.398 45.664-6.8095 70.072-0.0883 23.745 6.5327 46.068 13.524 92.381-12.94l-9.1972-46.711c-50.544 35.626-66.534 3.8408-102.53 2.5792l103.06-86.457 11.183-46.151h-215.89l13.897-55.389h141.5l9.7041-46.151h-190.5z"
         enable-background="new"
         fill="#fff"
         id="path21" />
    </g>
  </g>
  <path
     style="opacity:0.284981;fill:#ff0000;fill-opacity:0.976471;stroke-width:1.16895"
     d="m 60.474993,478.59059 c -7.339651,-1.74352 -13.119965,-5.32733 -18.822679,-11.67012 -9.678421,-10.76473 -8.987228,6.24726 -8.643063,-212.72751 l 0.305817,-194.576522 2.637314,-4.935535 c 4.1363,-7.740776 9.237486,-12.814922 16.438073,-16.35094 l 6.641508,-3.26147 H 256 452.96804 l 6.69136,3.285858 c 8.03103,3.943723 14.07954,10.659618 17.26276,19.167523 2.31549,6.188701 2.34725,8.879965 2.34725,198.894286 0,169.04884 -0.21772,193.35382 -1.77908,198.61146 -2.35987,7.94659 -11.25212,17.71611 -19.53075,21.45758 l -6.16049,2.78421 -193.46119,0.18339 C 147.91135,479.55754 62.98747,479.18742 60.474993,478.59059 Z M 236.39131,402.77546 c 25.51438,-13.58488 36.99093,-14.76084 64.74461,-6.63416 28.14573,8.24147 33.94195,9.2647 48.78641,8.6124 9.85711,-0.43313 15.45985,-1.35504 22.97265,-3.78001 9.35995,-3.0212 31.02882,-12.8056 32.0266,-14.46135 0.38836,-0.64446 -2.5448,-16.87654 -7.59299,-42.01948 l -1.24324,-6.19206 -3.70478,2.47275 c -8.53855,5.69905 -25.02474,12.81391 -32.3242,13.95 -10.06837,1.56703 -18.10935,0.18331 -37.29045,-6.41708 -8.50258,-2.92581 -18.27344,-5.6917 -21.71303,-6.1464 l -6.25381,-0.82674 51.02968,-42.82389 51.02969,-42.8239 4.98917,-20.88386 c 2.74404,-11.48614 5.30403,-22.06743 5.68884,-23.51401 l 0.69968,-2.63014 H 300.55643 c -73.79057,0 -107.67972,-0.38273 -107.67972,-1.2161 0,-1.03453 8.1938,-34.50145 11.7941,-48.17202 l 1.15446,-4.38357 h 70.59764 c 66.22668,0 70.63498,-0.12665 71.20097,-2.04566 1.22676,-4.15928 8.9058,-42.04198 8.9058,-43.93458 0,-1.82097 -6.79353,-1.9391 -95.53964,-1.66129 L 165.45038,107.54338 135.387,239.6347 c -16.53486,72.65023 -30.39477,133.5379 -30.7998,135.30594 l -0.73643,3.21461 h 25.59846 25.59847 l 14.35943,-59.90867 c 7.8977,-32.94978 14.48484,-60.04457 14.6381,-60.21066 0.15326,-0.16608 30.06762,-0.16608 66.47636,0 l 66.19769,0.30198 -62.53187,55.44679 c -34.39252,30.49574 -62.38861,55.82812 -62.21351,56.29418 0.33544,0.8929 32.85875,38.44051 33.31239,38.45858 0.1449,0.006 5.14216,-2.58712 11.10502,-5.76199 z"
     id="path901" />
</svg>
