<?xml version="1.0" encoding="UTF-8" standalone="no"?>
<svg
   width="512"
   height="512"
   enable-background="new"
   version="1.0"
   id="svg28"
   sodipodi:docname="gnome-usage.svg"
   inkscape:version="1.1 (c68e22c387, 2021-05-23)"
   xmlns:inkscape="http://www.inkscape.org/namespaces/inkscape"
   xmlns:sodipodi="http://sodipodi.sourceforge.net/DTD/sodipodi-0.dtd"
   xmlns="http://www.w3.org/2000/svg"
   xmlns:svg="http://www.w3.org/2000/svg">
  <sodipodi:namedview
     id="namedview30"
     pagecolor="#ffffff"
     bordercolor="#666666"
     borderopacity="1.0"
     inkscape:pageshadow="2"
     inkscape:pageopacity="0.0"
     inkscape:pagecheckerboard="0"
     showgrid="false"
     inkscape:zoom="0.60490775"
     inkscape:cx="354.59952"
     inkscape:cy="147.12987"
     inkscape:window-width="1366"
     inkscape:window-height="706"
     inkscape:window-x="0"
     inkscape:window-y="0"
     inkscape:window-maximized="1"
     inkscape:current-layer="svg28" />
  <defs
     id="defs10">
    <linearGradient
       id="a"
       x1="344"
       x2="104"
       y1="33.559"
       y2="33.559"
       gradientTransform="translate(-8 208)"
       gradientUnits="userSpaceOnUse">
      <stop
         stop-color="#4fd2fd"
         offset="0"
         id="stop2" />
      <stop
         stop-color="#4fd2fd"
         stop-opacity="0"
         offset="1"
         id="stop4" />
    </linearGradient>
    <filter
       id="b"
       x="-0.032464285"
       y="-0.0404"
       width="1.0649286"
       height="1.0808"
       color-interpolation-filters="sRGB">
      <feGaussianBlur
         stdDeviation="6.06"
         id="feGaussianBlur7" />
    </filter>
  </defs>
  <g
     id="g22">
    <path
       d="m64 88.272c-17.728 0-32 14.272-32 32v280 8 8c0 17.728 14.272 32 32 32h384c17.728 0 32-14.272 32-32v-8-8-280c0-17.728-14.272-32-32-32z"
       enable-background="new"
       filter="url(#b)"
       opacity=".15"
       style="paint-order:normal"
       id="path12" />
    <rect
       x="32"
       y="76"
       width="448"
       height="352"
       rx="32"
       ry="32"
       enable-background="new"
       fill="#f6f5f4"
       style="fill:#0000ff;opacity:0.96"
       id="rect14" />
    <rect
       x="48"
       y="92"
       width="416"
       height="312"
       rx="16"
       ry="16"
       enable-background="new"
       fill="#241f31"
       style="paint-order:normal"
       id="rect16" />
    <path
       d="m32 388v16c0 17.728 14.272 32 32 32h384c17.728 0 32-14.272 32-32v-16c0 17.728-14.272 32-32 32h-384c-17.728 0-32-14.272-32-32z"
       enable-background="new"
       fill="#d5d3cf"
       style="paint-order:normal"
       id="path18" />
    <rect
       transform="scale(1,-1)"
       x="64"
       y="-388"
       width="384"
       height="280"
       enable-background="new"
       fill="#fff"
       opacity=".1"
       style="paint-order:normal"
       id="rect20" />
  </g>
  <path
     d="m64 260h144l40-92 24 156 32-64h144"
     enable-background="new"
     fill="none"
     opacity=".236"
     stroke="#4fd2fd"
     stroke-miterlimit="10"
     stroke-width="16"
     id="path24" />
  <path
     d="m64 260h144l40-92 24 156 32-64h24"
     enable-background="new"
     fill="none"
     stroke="url(#a)"
     stroke-linecap="round"
     stroke-miterlimit="10"
     stroke-width="16"
     id="path26" />
  <path
     style="opacity:0.96;fill:#0000ff;stroke-width:0.206643"
     d="m 127.08549,412.0463 v -7.95576 h 134.318 134.318 v 7.95576 7.95576 h -134.318 -134.318 z"
     id="path1019" />
  <path
     style="opacity:0.96;fill:#0000ff;stroke-width:0.292237"
     d="m 395.98174,411.91826 v -7.89999 h 27.2628 c 30.02273,0 28.86453,0.0651 32.47595,-1.82517 2.5664,-1.34328 5.4359,-4.33957 6.6936,-6.98936 0.5598,-1.17941 1.16208,-2.84126 1.33839,-3.69301 0.22602,-1.09183 0.32058,-17.83649 0.32058,-56.76712 v -55.2185 h 7.89614 7.89615 l -0.0848,56.76713 -0.0848,56.76712 -0.63178,2.3379 c -2.5838,9.56136 -8.42658,16.84403 -16.89045,21.05291 -1.76804,0.8792 -4.52968,1.95793 -6.13699,2.39716 l -2.92237,0.79862 -28.56621,0.0861 -28.56621,0.0862 z"
     id="path1058" />
  <path
     style="opacity:0.96;fill:#0000ff;stroke-width:0.292237"
     d="m 395.81742,412.05479 c -1.6e-4,-4.33972 0.0405,-6.1558 0.0904,-4.03573 0.0499,2.12007 0.05,5.67075 2.9e-4,7.89041 -0.0497,2.21965 -0.0905,0.48505 -0.0907,-3.85468 z"
     id="path1097" />
  <path
     style="opacity:0.96;fill:#0000ff;stroke-width:0.292237"
     d=""
     id="path1136" />
  <path
     style="opacity:0.96;fill:#0000ff;stroke-width:0.292237"
     d="m 222.97717,412.05479 v -7.74429 h 86.34387 86.34387 l 0.0996,2.26484 0.0996,2.26484 0.0588,-2.41096 0.0588,-2.41095 26.9589,-0.002 c 17.38985,-0.001 27.62895,-0.11092 28.84662,-0.30849 5.24301,-0.85065 10.70261,-6.17744 11.97036,-11.67917 0.20094,-0.87204 0.30353,-19.80769 0.30829,-56.90511 l 0.007,-55.59805 7.81735,-3e-5 7.81735,-3e-5 -0.0843,56.76716 -0.0843,56.76715 -0.72978,2.63014 c -1.00909,3.63674 -3.78564,9.12988 -6.07271,12.01428 -4.13033,5.20909 -10.45688,9.26054 -17.43074,11.16246 -2.12471,0.57946 -3.06576,0.601 -30.7515,0.70383 l -28.55972,0.10608 -0.0867,-5.12574 -0.0867,-5.12575 -0.0659,5.18721 -0.0659,5.18722 H 309.33316 222.977 Z"
     id="path1175" />
  <path
     style="opacity:0.96;fill:#0000ff;stroke-width:0.292237"
     d="m 222.97717,412.09955 v -7.69953 l 113.46119,-0.17717 c 79.51128,-0.12417 114.01692,-0.27212 115.31847,-0.49446 5.39971,-0.92244 11.00389,-6.49328 12.02245,-11.95093 0.1903,-1.01969 0.29378,-21.06545 0.29378,-56.91324 v -55.33911 h 7.74429 7.74429 v 56.60237 56.60236 l -0.61611,2.19569 c -2.88472,10.28055 -9.35764,17.881 -18.92406,22.22051 -1.18362,0.53691 -2.6302,1.09922 -3.21461,1.24958 -0.58441,0.15036 -1.58859,0.40719 -2.23152,0.57075 -0.7319,0.18619 -11.86273,0.35486 -29.77107,0.45113 -23.92298,0.1286 -28.64332,0.0887 -28.85397,-0.24375 -0.19668,-0.31041 -0.25283,-0.28546 -0.25633,0.11392 -0.004,0.4859 -4.3132,0.51142 -86.36064,0.51142 h -86.35616 z"
     id="path1214" />
  <path
     style="opacity:0.96;fill:#0000ff;stroke-width:0.292237"
     d="m 222.97717,412.05479 v -7.74429 h 86.34158 86.34158 l 0.10545,1.68037 0.10544,1.68036 0.0553,-1.82648 0.0553,-1.82648 26.66666,-0.01 c 14.66667,-0.005 27.56874,-0.1258 28.67128,-0.26788 5.74049,-0.73972 11.64279,-6.59182 12.47903,-12.3729 0.14778,-1.02163 0.26517,-25.86981 0.26847,-56.82911 l 0.006,-55.01371 h 7.74429 7.74429 v 56.82343 56.82343 l -0.99482,3.03693 c -2.47726,7.56241 -6.93828,13.8069 -12.61679,17.66086 -2.21917,1.50613 -6.13191,3.47344 -8.74455,4.39674 -2.88914,1.02101 -8.08177,1.19114 -37.17699,1.21809 l -24.02631,0.0223 -0.0947,-2.99543 -0.0947,-2.99544 -0.0616,3.14155 -0.0616,3.14156 h -86.35617 -86.35616 z"
     id="path1253" />
  <path
     style="opacity:0.96;fill:#0000ff;stroke-width:0.0365297"
     d="m 464,200.89498 v -15.0137 h 8 8 v 15.0137 15.0137 h -8 -8 z"
     id="path1370" />
  <path
     style="opacity:0.96;fill:#0000ff;stroke-width:0.0516608"
     d="m 464.01703,173.1669 v -12.68272 h 7.98159 7.98159 v 12.68272 12.68272 h -7.98159 -7.98159 z"
     id="path1448" />
</svg>
