<?xml version="1.0" encoding="UTF-8" standalone="no"?>
<svg
   width="512"
   height="512"
   enable-background="new"
   version="1.0"
   id="svg29"
   sodipodi:docname="a.svg"
   inkscape:version="1.1 (c68e22c387, 2021-05-23)"
   xmlns:inkscape="http://www.inkscape.org/namespaces/inkscape"
   xmlns:sodipodi="http://sodipodi.sourceforge.net/DTD/sodipodi-0.dtd"
   xmlns="http://www.w3.org/2000/svg"
   xmlns:svg="http://www.w3.org/2000/svg">
  <sodipodi:namedview
     id="namedview31"
     pagecolor="#ffffff"
     bordercolor="#666666"
     borderopacity="1.0"
     inkscape:pageshadow="2"
     inkscape:pageopacity="0.0"
     inkscape:pagecheckerboard="0"
     showgrid="false"
     inkscape:zoom="0.85546875"
     inkscape:cx="256"
     inkscape:cy="256"
     inkscape:window-width="1366"
     inkscape:window-height="706"
     inkscape:window-x="0"
     inkscape:window-y="0"
     inkscape:window-maximized="1"
     inkscape:current-layer="svg29" />
  <defs
     id="defs11">
    <filter
       id="g"
       x="-0.025999999"
       y="-0.022285713"
       width="1.052"
       height="1.0445714"
       color-interpolation-filters="sRGB">
      <feGaussianBlur
         stdDeviation="4.16"
         id="feGaussianBlur2" />
    </filter>
    <filter
       id="f"
       x="-0.025999999"
       y="-0.022285713"
       width="1.052"
       height="1.0445714"
       color-interpolation-filters="sRGB">
      <feGaussianBlur
         stdDeviation="4.16"
         id="feGaussianBlur5" />
    </filter>
    <filter
       id="e"
       x="-0.065999795"
       y="-0.055000001"
       width="1.1319996"
       height="1.11"
       color-interpolation-filters="sRGB">
      <feGaussianBlur
         stdDeviation="8.8"
         id="feGaussianBlur8" />
    </filter>
  </defs>
  <g
     transform="translate(-208,2068)"
     id="g27">
    <path
       d="m656-1610v-400c0-13.296-10.704-24-24-24h-336c-13.296 0-24 10.704-24 24v400c0 13.296 10.704 24 24 24h336c13.296 0 24-10.704 24-24z"
       opacity=".2"
       id="path13" />
    <path
       d="m656-1608v-400c0-13.296-10.704-24-24-24h-336c-13.296 0-24 10.704-24 24v400c0 13.296 10.704 24 24 24h336c13.296 0 24-10.704 24-24z"
       filter="url(#f)"
       opacity=".2"
       id="path15" />
    <path
       d="m656-1608v-400c0-13.296-10.704-24-24-24h-336c-13.296 0-24 10.704-24 24v400c0 13.296 10.704 24 24 24h336c13.296 0 24-10.704 24-24z"
       filter="url(#g)"
       opacity=".1"
       id="path17" />
    <path
       d="m656-1612v-400c0-13.296-10.704-24-24-24h-336c-13.296 0-24 10.704-24 24v400c0 13.296 10.704 24 24 24h336c13.296 0 24-10.704 24-24z"
       fill="#f9ce1d"
       id="path19" />
    <path
       d="m308-1996c-2.216 0-4 1.784-4 4v376c0 2.216 1.784 4 4 4h312c2.216 0 4-1.784 4-4v-267.03l-112.97-112.97zm236.97 0 79.031 79.031v-75.031c0-2.216-1.784-4-4-4z"
       filter="url(#e)"
       opacity=".2"
       id="path21" />
    <path
       d="m308-2004c-2.216 0-4 1.784-4 4v376c0 2.216 1.784 4 4 4h312c2.216 0 4-1.784 4-4v-267.03l-112.97-112.97zm236.97 0 79.031 79.031v-75.031c0-2.216-1.784-4-4-4z"
       fill="#f5f5f5"
       id="path23" />
    <path
       d="m523.67-1838.6c-2.535-0.03-5.1866 0.4808-7.7774 1.9219-8.3252 4.6318-11.333 13.98-11.338 22.053-5e-3 8.0728 1.9953 16.232 3.7754 24.014 1.7801 7.7819 3.3324 15.194 3.2832 20.193-0.0492 4.9997-0.51022 6.1869-3.0957 7.4882-2.2967 1.156-3.4425 1.172-4.7012 0.9161-1.2587-0.256-2.9123-1.0711-4.9922-2.8672-4.1598-3.5923-9.2645-10.824-15.061-18.674-5.7961-7.8496-12.447-16.402-21.584-22.57-9.1371-6.1682-21.192-9.4741-34.85-6.3613l-0.15625 0.037-0.15625 0.041c-9.1576 2.481-15.884 9.4356-20.479 17.715-4.5947 8.2792-7.387 18.212-8.752 28.74-0.11342 0.8748-0.15952 1.7737-0.25391 2.6562-2.1958-0.1217-4.38-0.2859-6.5938-0.3339l-14.77-0.3203-7.998-0.1739-0.34766 15.996 22.768 0.4942c2.1285 0.046 4.2142 0.2021 6.3145 0.3242 0.4385 15.434 3.907 30.783 11.342 42.812l0.15625 0.2519 0.17383 0.2403c11.759 16.198 31.779 20.989 46.912 15.098 7.5667-2.9457 14.195-9.2852 16.213-18.002 2.0181-8.7168-0.45994-18.682-7.2266-29.186-6.6152-10.268-17.814-16.729-30.68-20.961-6.3602-2.0922-13.211-3.6329-20.336-4.7051 0.0742-0.7072 0.10279-1.4342 0.19336-2.1328 1.1641-8.9796 3.627-17.183 6.875-23.035 3.2098-5.7836 6.8662-8.9343 10.541-9.9804 9.531-2.1256 15.887-0.1853 22.156 4.0468 6.3126 4.2615 12.122 11.304 17.666 18.812 5.5442 7.5086 10.661 15.397 17.473 21.279 3.406 2.9414 7.4252 5.4539 12.262 6.4375s10.209 0.1511 15.084-2.3027c8.4944-4.2753 11.821-13.606 11.9-21.625s-1.901-16.125-3.6836-23.918c-1.7826-7.7927-3.3761-15.263-3.373-20.436 3e-3 -5.1721 0.6043-6.6823 3.1172-8.0801-0.53563 0.298-0.0428-0.1038 1.957 0.5723s4.8389 2.2258 7.4902 4.0371c5.3027 3.6225 9.7949 7.9824 9.7949 7.9824l5.7148 5.5977 11.195-11.432-5.7168-5.5976s-5.2244-5.1584-11.963-9.7618c-3.3693-2.3016-7.1328-4.5429-11.391-5.9824-2.1289-0.7197-4.5489-1.2902-7.084-1.3203zm-110.37 93.09c5.5325 0.9296 10.805 2.1083 15.498 3.6523 10.784 3.5475 18.542 8.7055 22.229 14.428 5.2511 8.1508 5.8356 13.689 5.0898 16.91s-2.7084 5.2525-6.4297 6.7012c-7.3886 2.8763-20.582 0.5766-27.982-9.3868-4.8591-8.0202-7.6399-19.972-8.4043-32.305z"
       color="#000000"
       color-rendering="auto"
       enable-background="new"
       fill="#ccc"
       fill-rule="evenodd"
       image-rendering="auto"
       shape-rendering="auto"
       solid-color="#000000"
       style="isolation:auto;mix-blend-mode:normal;text-decoration-color:#000000;text-decoration-line:none;text-decoration-style:solid;text-indent:0;text-transform:none;white-space:normal"
       id="path25" />
  </g>
  <path
     style="fill:#f9ce1d;fill-opacity:1;stroke-width:1.16895"
     d="m 223.26941,379.40003 c -19.02271,-5.80741 -30.5753,-23.73425 -33.38269,-51.80186 l -0.78922,-7.89041 h -14.47569 -14.47569 v -7.70248 -7.70249 l 14.78761,0.35765 14.78762,0.35766 2.10567,-10.40063 c 3.81348,-18.83613 13.16476,-32.9857 24.71511,-37.39682 4.00921,-1.53113 7.84788,-1.9469 15.11029,-1.63661 17.22405,0.7359 26.54132,7.09156 44.0243,30.03062 11.16463,14.64887 17.68294,21.23466 21.0171,21.23466 1.12041,0 3.20623,-0.81887 4.63512,-1.81971 3.63883,-2.54874 3.42128,-9.00868 -1.02435,-30.41695 -4.01796,-19.34877 -4.02016,-26.28692 -0.0105,-34.14588 2.7261,-5.3436 7.60889,-9.28384 12.78834,-10.31973 7.29772,-1.45955 18.63012,4.45532 33.51149,17.49109 l 4.6758,4.0959 -5.11685,5.25122 -5.11683,5.25122 -7.52812,-6.3863 c -4.14075,-3.51247 -9.82938,-7.50421 -12.64168,-8.87053 -9.90489,-4.81216 -10.83304,0.15902 -5.24978,28.11822 3.84784,19.2688 4.1246,23.0448 2.19872,29.99802 -2.75795,9.9573 -10.48246,15.87925 -20.81708,15.95931 -10.53956,0.0816 -17.11139,-5.19123 -33.13648,-26.58689 -10.88502,-14.53296 -17.92864,-20.88764 -25.95741,-23.41848 -12.23083,-3.85543 -21.16216,0.0134 -26.60598,11.5251 -2.56356,5.42099 -7.39287,23.01351 -6.48726,23.63219 0.18686,0.12764 4.81097,1.32196 10.27581,2.65403 14.1833,3.45722 22.1097,6.70338 29.78019,12.19609 12.67293,9.07489 21.10129,27.24784 18.21574,39.27616 -2.98977,12.46277 -14.0795,20.20707 -28.70826,20.04786 -4.50046,-0.049 -9.49772,-0.49054 -11.10502,-0.98123 z m 22.29996,-17.52016 c 3.90344,-3.90344 4.19781,-6.73328 1.51843,-14.59684 -2.54587,-7.47173 -8.92182,-13.8859 -18.04865,-18.15685 -7.92678,-3.70939 -22.86974,-7.90442 -24.0285,-6.74566 -0.99777,0.99777 1.84297,16.68665 4.33059,23.91704 4.47831,13.01643 12.30205,18.84831 25.41535,18.94482 6.65179,0.049 7.73961,-0.28933 10.81278,-3.36251 z"
     id="path5842" />
</svg>
