<?xml version="1.0" encoding="UTF-8" standalone="no"?>
<svg
   width="512"
   height="512"
   enable-background="new"
   version="1.0"
   id="svg33"
   sodipodi:docname="libreoffice-writer.svg"
   inkscape:version="1.1 (c68e22c387, 2021-05-23)"
   xmlns:inkscape="http://www.inkscape.org/namespaces/inkscape"
   xmlns:sodipodi="http://sodipodi.sourceforge.net/DTD/sodipodi-0.dtd"
   xmlns="http://www.w3.org/2000/svg"
   xmlns:svg="http://www.w3.org/2000/svg">
  <sodipodi:namedview
     id="namedview35"
     pagecolor="#ffffff"
     bordercolor="#666666"
     borderopacity="1.0"
     inkscape:pageshadow="2"
     inkscape:pageopacity="0.0"
     inkscape:pagecheckerboard="0"
     showgrid="false"
     inkscape:zoom="0.85546875"
     inkscape:cx="256"
     inkscape:cy="256"
     inkscape:window-width="1366"
     inkscape:window-height="706"
     inkscape:window-x="0"
     inkscape:window-y="0"
     inkscape:window-maximized="1"
     inkscape:current-layer="svg33" />
  <defs
     id="defs11">
    <filter
       id="l"
       x="-0.025999999"
       y="-0.022285713"
       width="1.052"
       height="1.0445714"
       color-interpolation-filters="sRGB">
      <feGaussianBlur
         stdDeviation="4.16"
         id="feGaussianBlur2" />
    </filter>
    <filter
       id="k"
       x="-0.025999999"
       y="-0.022285713"
       width="1.052"
       height="1.0445714"
       color-interpolation-filters="sRGB">
      <feGaussianBlur
         stdDeviation="4.16"
         id="feGaussianBlur5" />
    </filter>
    <filter
       id="j"
       x="-0.065999795"
       y="-0.055000001"
       width="1.1319996"
       height="1.11"
       color-interpolation-filters="sRGB">
      <feGaussianBlur
         stdDeviation="8.8"
         id="feGaussianBlur8" />
    </filter>
  </defs>
  <g
     transform="translate(-208,2660)"
     id="g31">
    <path
       d="m656-2202v-400c0-13.296-10.704-24-24-24h-336c-13.296 0-24 10.704-24 24v400c0 13.296 10.704 24 24 24h336c13.296 0 24-10.704 24-24z"
       opacity=".2"
       id="path13" />
    <path
       d="m656-2200v-400c0-13.296-10.704-24-24-24h-336c-13.296 0-24 10.704-24 24v400c0 13.296 10.704 24 24 24h336c13.296 0 24-10.704 24-24z"
       filter="url(#k)"
       opacity=".2"
       id="path15" />
    <path
       d="m656-2200v-400c0-13.296-10.704-24-24-24h-336c-13.296 0-24 10.704-24 24v400c0 13.296 10.704 24 24 24h336c13.296 0 24-10.704 24-24z"
       filter="url(#l)"
       opacity=".1"
       id="path17" />
    <path
       d="m656-2204v-400c0-13.296-10.704-24-24-24h-336c-13.296 0-24 10.704-24 24v400c0 13.296 10.704 24 24 24h336c13.296 0 24-10.704 24-24z"
       fill="#3f51b5"
       id="path19" />
    <path
       d="m308-2596c-2.216 0-4 1.784-4 4v376c0 2.216 1.784 4 4 4h312c2.216 0 4-1.784 4-4v-267.03l-112.97-112.97zm236.97 0 79.031 79.031v-75.031c0-2.216-1.784-4-4-4z"
       fill="#f5f5f5"
       id="path21" />
    <path
       transform="translate(0,-244)"
       d="m296-2384c-13.296 0-24 10.704-24 24v2c0-13.296 10.704-24 24-24h336c13.296 0 24 10.704 24 24v-2c0-13.296-10.704-24-24-24z"
       fill="#fff"
       opacity=".2"
       id="path23" />
    <path
       d="m308-2588c-2.216 0-4 1.784-4 4v376c0 2.216 1.784 4 4 4h312c2.216 0 4-1.784 4-4v-267.03l-112.97-112.97zm236.97 0 79.031 79.031v-75.031c0-2.216-1.784-4-4-4z"
       fill="#040404"
       filter="url(#j)"
       opacity=".2"
       id="path25" />
    <path
       d="m308-2596c-2.216 0-4 1.784-4 4v376c0 2.216 1.784 4 4 4h312c2.216 0 4-1.784 4-4v-267.03l-112.97-112.97zm236.97 0 79.031 79.031v-75.031c0-2.216-1.784-4-4-4z"
       fill="#f5f5f5"
       id="path27" />
    <path
       d="m368-2276v-16h121.2v16zm0-48v-16h192v16zm0-48v-16h192v16zm0-48v-16h192v16z"
       enable-background="new"
       fill="#ccc"
       id="path29" />
  </g>
  <path
     style="fill:#3f51b5;fill-opacity:1;stroke-width:1.16895"
     d="m 160.14612,232.03653 v -7.0137 H 256 351.85388 v 7.0137 7.0137 H 256 160.14612 Z"
     id="path3506" />
  <path
     style="fill:#3f51b5;fill-opacity:1;stroke-width:1.16895"
     d="m 160.14612,279.96347 v -7.0137 H 256 351.85388 v 7.0137 7.0137 H 256 160.14612 Z"
     id="path3545" />
  <path
     style="fill:#3f51b5;fill-opacity:1;stroke-width:1.16895"
     d="m 160.14612,327.89041 v -7.0137 H 256 351.85388 v 7.0137 7.0137 H 256 160.14612 Z"
     id="path3584" />
  <path
     style="fill:#3f51b5;fill-opacity:1;stroke-width:1.16895"
     d="m 160.14612,376.40183 v -7.59818 h 60.20091 60.20092 V 376.40183 384 h -60.20092 -60.20091 z"
     id="path3623" />
</svg>
