<?xml version="1.0" encoding="UTF-8" standalone="no"?>
<svg
   width="512"
   height="512"
   enable-background="new"
   version="1.0"
   id="svg35"
   sodipodi:docname="libreoffice-impress.svg"
   inkscape:version="1.1 (c68e22c387, 2021-05-23)"
   xmlns:inkscape="http://www.inkscape.org/namespaces/inkscape"
   xmlns:sodipodi="http://sodipodi.sourceforge.net/DTD/sodipodi-0.dtd"
   xmlns="http://www.w3.org/2000/svg"
   xmlns:svg="http://www.w3.org/2000/svg">
  <sodipodi:namedview
     id="namedview37"
     pagecolor="#ffffff"
     bordercolor="#666666"
     borderopacity="1.0"
     inkscape:pageshadow="2"
     inkscape:pageopacity="0.0"
     inkscape:pagecheckerboard="0"
     showgrid="false"
     inkscape:zoom="0.85546875"
     inkscape:cx="256"
     inkscape:cy="256"
     inkscape:window-width="1366"
     inkscape:window-height="706"
     inkscape:window-x="0"
     inkscape:window-y="0"
     inkscape:window-maximized="1"
     inkscape:current-layer="svg35" />
  <defs
     id="defs11">
    <filter
       id="o"
       x="-0.025999999"
       y="-0.022285713"
       width="1.052"
       height="1.0445714"
       color-interpolation-filters="sRGB">
      <feGaussianBlur
         stdDeviation="4.16"
         id="feGaussianBlur2" />
    </filter>
    <filter
       id="n"
       x="-0.025999999"
       y="-0.022285713"
       width="1.052"
       height="1.0445714"
       color-interpolation-filters="sRGB">
      <feGaussianBlur
         stdDeviation="4.16"
         id="feGaussianBlur5" />
    </filter>
    <filter
       id="m"
       x="-0.065999795"
       y="-0.055000001"
       width="1.1319996"
       height="1.11"
       color-interpolation-filters="sRGB">
      <feGaussianBlur
         stdDeviation="8.8"
         id="feGaussianBlur8" />
    </filter>
  </defs>
  <g
     transform="translate(-208,1256)"
     id="g33">
    <g
       transform="translate(0,212)"
       id="g19">
      <path
         d="m656-1010v-400c0-13.296-10.704-24-24-24h-336c-13.296 0-24 10.704-24 24v400c0 13.296 10.704 24 24 24h336c13.296 0 24-10.704 24-24z"
         opacity=".2"
         id="path13" />
      <path
         d="m656-1008v-400c0-13.296-10.704-24-24-24h-336c-13.296 0-24 10.704-24 24v400c0 13.296 10.704 24 24 24h336c13.296 0 24-10.704 24-24z"
         filter="url(#n)"
         opacity=".2"
         id="path15" />
      <path
         d="m656-1008v-400c0-13.296-10.704-24-24-24h-336c-13.296 0-24 10.704-24 24v400c0 13.296 10.704 24 24 24h336c13.296 0 24-10.704 24-24z"
         filter="url(#o)"
         opacity=".1"
         id="path17" />
    </g>
    <path
       d="m656-800v-400c0-13.296-10.704-24-24-24h-336c-13.296 0-24 10.704-24 24v400c0 13.296 10.704 24 24 24h336c13.296 0 24-10.704 24-24z"
       fill="#ff5722"
       id="path21" />
    <path
       d="m308-1184c-2.216 0-4 1.784-4 4v376c0 2.216 1.784 4 4 4h312c2.216 0 3.9834-1.7841 4-4v-267.03l-112.97-112.97zm236.97 0 79.031 79.031v-75.031c0-2.216-1.784-4-4-4z"
       filter="url(#m)"
       opacity=".2"
       id="path23" />
    <path
       d="m308-1192c-2.216 0-4 1.784-4 4v376c0 2.216 1.784 4 4 4h312c2.216 0 3.9834-1.7841 4-4v-267.03l-112.97-112.97zm236.97 0 79.031 79.031v-75.031c0-2.216-1.784-4-4-4z"
       fill="#f5f5f5"
       id="path25" />
    <path
       d="m296-1224c-13.296 0-24 10.704-24 24v2c0-13.296 10.704-24 24-24h336c13.296 0 24 10.704 24 24v-2c0-13.296-10.704-24-24-24z"
       fill="#fff"
       opacity=".2"
       id="path27" />
    <path
       d="m400-1020c-19.882 0-36 16.118-36 36s16.118 36 36 36 36-16.118 36-36h-36z"
       color="#000000"
       enable-background="new"
       fill="#ccc"
       filter="url(#filter14069)"
       style="text-decoration-line:none;text-indent:0;text-transform:none"
       id="path29" />
    <path
       d="m464-1016v16h96v-16zm0 48v16h96v-16zm-96 48v16h192v-16h-96zm0 48v16h144v-16z"
       color="#000000"
       enable-background="new"
       fill="#ccc"
       filter="url(#filter14069)"
       style="text-decoration-line:none;text-indent:0;text-transform:none"
       id="path31" />
  </g>
  <path
     style="fill:#fd5622;fill-opacity:1;stroke-width:1.16895"
     d="m 187.03196,306.73825 c -7.56274,-1.12331 -13.07535,-3.7107 -18.66491,-8.76053 -14.91569,-13.47544 -15.48991,-36.5735 -1.2629,-50.80051 5.52118,-5.52118 15.78431,-10.46488 21.72509,-10.46488 h 2.87852 v 18.11872 18.11872 h 17.96781 17.9678 l -1.0024,5.36561 c -1.2722,6.80974 -6.34923,16.19134 -10.77976,19.91938 -8.13371,6.84407 -18.80667,9.99217 -28.82925,8.50349 z"
     id="path3118" />
  <path
     style="fill:#fd5622;fill-opacity:1;stroke-width:1.16895"
     d="m 256,247.81735 v -7.59817 h 47.92694 47.92694 v 7.59817 7.59818 H 303.92694 256 Z"
     id="path3157" />
  <path
     style="fill:#fd5622;fill-opacity:1;stroke-width:1.16895"
     d="m 256,295.74429 v -7.59817 h 47.92694 47.92694 v 7.59817 7.59818 H 303.92694 256 Z"
     id="path3196" />
  <path
     style="fill:#fd5622;fill-opacity:1;stroke-width:1.16895"
     d="m 160.14612,343.67123 v -7.59817 H 256 351.85388 v 7.59817 7.59818 H 256 160.14612 Z"
     id="path3235" />
  <path
     style="fill:#fd5622;fill-opacity:1;stroke-width:1.16895"
     d="M 160.14612,391.59817 V 384 h 71.89041 71.89041 v 7.59817 7.59818 h -71.89041 -71.89041 z"
     id="path3274" />
</svg>
