<?xml version="1.0" encoding="UTF-8" standalone="no"?>
<svg
   width="512"
   height="512"
   enable-background="new"
   version="1.0"
   id="svg61"
   sodipodi:docname="mixxx.svg"
   inkscape:version="1.1 (c68e22c387, 2021-05-23)"
   xmlns:inkscape="http://www.inkscape.org/namespaces/inkscape"
   xmlns:sodipodi="http://sodipodi.sourceforge.net/DTD/sodipodi-0.dtd"
   xmlns="http://www.w3.org/2000/svg"
   xmlns:svg="http://www.w3.org/2000/svg">
  <sodipodi:namedview
     id="namedview63"
     pagecolor="#ffffff"
     bordercolor="#666666"
     borderopacity="1.0"
     inkscape:pageshadow="2"
     inkscape:pageopacity="0.0"
     inkscape:pagecheckerboard="0"
     showgrid="false"
     inkscape:zoom="0.85546875"
     inkscape:cx="256"
     inkscape:cy="256"
     inkscape:window-width="1221"
     inkscape:window-height="620"
     inkscape:window-x="45"
     inkscape:window-y="29"
     inkscape:window-maximized="0"
     inkscape:current-layer="svg61" />
  <title
     id="title2">Paper Icon Theme</title>
  <defs
     id="defs13">
    <filter
       id="a"
       x="-0.024"
       y="-0.024"
       width="1.048"
       height="1.048"
       color-interpolation-filters="sRGB">
      <feGaussianBlur
         stdDeviation="4.48"
         id="feGaussianBlur4" />
    </filter>
    <filter
       id="c"
       x="-0.135"
       y="-0.135"
       width="1.27"
       height="1.27"
       color-interpolation-filters="sRGB">
      <feGaussianBlur
         stdDeviation="7.2"
         id="feGaussianBlur7" />
    </filter>
    <filter
       id="b"
       x="-0.135"
       y="-0.135"
       width="1.27"
       height="1.27"
       color-interpolation-filters="sRGB">
      <feGaussianBlur
         stdDeviation="7.2"
         id="feGaussianBlur10" />
    </filter>
  </defs>
  <g
     transform="translate(0,212)"
     id="g59">
    <g
       id="g57">
      <g
         transform="translate(-208,16)"
         id="g55">
        <g
           id="g21">
          <rect
             transform="matrix(0,-1,-1,0,0,0)"
             x="-254"
             y="-688"
             width="448"
             height="448"
             rx="36"
             ry="36"
             opacity=".2"
             id="rect15" />
          <rect
             transform="matrix(0,-1,-1,0,0,0)"
             x="-256"
             y="-688"
             width="448"
             height="448"
             rx="36"
             ry="36"
             filter="url(#a)"
             opacity=".1"
             id="rect17" />
          <rect
             transform="matrix(0,-1,-1,0,0,0)"
             x="-256"
             y="-688"
             width="448"
             height="448"
             rx="36"
             ry="36"
             filter="url(#a)"
             opacity=".2"
             id="rect19" />
        </g>
        <rect
           transform="matrix(0,-1,-1,0,0,0)"
           x="-252"
           y="-688"
           width="448"
           height="448"
           rx="36"
           ry="36"
           fill="#3f3f3f"
           id="rect23"
           style="fill:#40e0d0;opacity:0.96" />
        <g
           fill="#fff"
           id="g31">
          <path
             transform="translate(0,-244)"
             d="m276 48c-19.944 0-36 16.056-36 36v2c0-19.944 16.056-36 36-36h376c19.944 0 36 16.056 36 36v-2c0-19.944-16.056-36-36-36z"
             opacity=".1"
             id="path25" />
          <path
             d="m304-52h320v1h-320z"
             opacity=".1"
             id="path27" />
          <path
             d="m304 140h320v1h-320z"
             opacity=".1"
             id="path29" />
        </g>
        <g
           id="g39">
          <path
             d="m352-126h96c8.864 0 16 7.136 16 16v96c0 8.864-7.136 16-16 16h-96c-8.864 0-16-7.136-16-16v-96c0-8.864 7.136-16 16-16z"
             filter="url(#c)"
             opacity=".2"
             id="path33" />
          <path
             d="m480 66h96c8.864 0 16 7.136 16 16v96c0 8.864-7.136 16-16 16h-96c-8.864 0-16-7.136-16-16v-96c0-8.864 7.136-16 16-16z"
             filter="url(#b)"
             opacity=".2"
             id="path35" />
          <path
             d="m304-84h320v32h-320z"
             opacity=".3"
             id="path37" />
        </g>
        <path
           d="m352-132h96c8.864 0 16 7.136 16 16v96c0 8.864-7.136 16-16 16h-96c-8.864 0-16-7.136-16-16v-96c0-8.864 7.136-16 16-16z"
           fill="#fff"
           id="path41" />
        <path
           d="m376-132h48v128h-48z"
           fill="#e80800"
           id="path43"
           style="fill:#00bfff;opacity:0.96;fill-opacity:0.97647059" />
        <path
           d="m304 108h320v32h-320z"
           opacity=".3"
           id="path45" />
        <path
           d="m480 60h96c8.864 0 16 7.136 16 16v96c0 8.864-7.136 16-16 16h-96c-8.864 0-16-7.136-16-16v-96c0-8.864 7.136-16 16-16z"
           fill="#fff"
           id="path47" />
        <path
           d="m504 60h48v128h-48z"
           fill="#e80800"
           id="path49"
           style="fill:#00bfff;opacity:0.96;fill-opacity:0.97647059" />
        <path
           transform="translate(0,-244)"
           d="m352 112c-8.864 0-16 7.136-16 16v2c0-8.864 7.136-16 16-16h96c8.864 0 16 7.136 16 16v-2c0-8.864-7.136-16-16-16z"
           fill="#fff"
           opacity=".2"
           id="path51" />
        <path
           d="m480 60c-8.864 0-16 7.136-16 16v2c0-8.864 7.136-16 16-16h96c8.864 0 16 7.136 16 16v-2c0-8.864-7.136-16-16-16z"
           fill="#fff"
           opacity=".2"
           id="path53" />
      </g>
    </g>
  </g>
</svg>
