<?xml version="1.0" encoding="UTF-8" standalone="no"?>
<svg
   width="512"
   height="512"
   enable-background="new"
   version="1.0"
   id="svg29"
   sodipodi:docname="zeal.svg"
   inkscape:version="1.1 (c68e22c387, 2021-05-23)"
   xmlns:inkscape="http://www.inkscape.org/namespaces/inkscape"
   xmlns:sodipodi="http://sodipodi.sourceforge.net/DTD/sodipodi-0.dtd"
   xmlns="http://www.w3.org/2000/svg"
   xmlns:svg="http://www.w3.org/2000/svg">
  <sodipodi:namedview
     id="namedview31"
     pagecolor="#ffffff"
     bordercolor="#666666"
     borderopacity="1.0"
     inkscape:pageshadow="2"
     inkscape:pageopacity="0.0"
     inkscape:pagecheckerboard="0"
     showgrid="false"
     inkscape:zoom="0.85546875"
     inkscape:cx="255.41553"
     inkscape:cy="256"
     inkscape:window-width="1276"
     inkscape:window-height="650"
     inkscape:window-x="45"
     inkscape:window-y="29"
     inkscape:window-maximized="0"
     inkscape:current-layer="svg29" />
  <defs
     id="defs5">
    <filter
       id="a"
       x="-0.036956522"
       y="-0.030357143"
       width="1.073913"
       height="1.0607143"
       color-interpolation-filters="sRGB">
      <feGaussianBlur
         stdDeviation="4"
         id="feGaussianBlur2" />
    </filter>
  </defs>
  <g
     transform="translate(0,212)"
     id="g27">
    <g
       id="g25">
      <g
         transform="translate(-208,16)"
         id="g23">
        <g
           id="g13">
          <path
             d="m296 254c-13.296 0-24-10.704-24-24v-2c0 13.296 10.704 24 24 24h320c13.296 0 24-10.704 24-24v2c0 13.296-10.704 24-24 24h-152z"
             opacity=".2"
             id="path7" />
          <path
             transform="matrix(-1 0 0 1 928 0)"
             d="m312-192c-13.296 0-24 10.704-24 24v400c0 13.296 10.704 24 24 24h320c13.296 0 24-10.704 24-24v-400c0-13.296-10.704-24-24-24h-168z"
             filter="url(#a)"
             opacity=".1"
             stroke="#000"
             stroke-width="8"
             id="path9" />
          <path
             d="m296-192c-13.296 0-24 10.704-24 24v400c0 13.296 10.704 24 24 24h320c13.296 0 24-10.704 24-24v-400c0-13.296-10.704-24-24-24h-152z"
             filter="url(#a)"
             opacity=".2"
             id="path11" />
        </g>
        <path
           transform="translate(0,-244)"
           d="m336 48v448h280c13.296 0 24-10.704 24-24v-400c0-13.296-10.704-24-24-24h-152z"
           fill="#bf360c"
           id="path15" />
        <path
           transform="translate(0,-244)"
           d="m296 48c-13.296 0-24 10.704-24 24v400c0 13.296 10.704 24 24 24h40v-448z"
           fill="#333"
           id="path17" />
        <path
           transform="translate(0,76)"
           d="m296-272c-13.296 0-24 10.704-24 24v2c0-13.296 10.704-24 24-24h320c13.296 0 24 10.704 24 24v-2c0-13.296-10.704-24-24-24h-152z"
           fill="#fff"
           opacity=".2"
           id="path19" />
        <path
           d="m384-100v48h122.73l-122.73 161.34v46.659h192v-48h-128.55l128.55-162.8v-45.205z"
           color="#000000"
           color-rendering="auto"
           enable-background="accumulate"
           fill="#fff"
           fill-rule="evenodd"
           image-rendering="auto"
           shape-rendering="auto"
           solid-color="#000000"
           style="isolation:auto;mix-blend-mode:normal;text-decoration-color:#000000;text-decoration-line:none;text-decoration-style:solid;text-indent:0;text-transform:none;white-space:normal"
           id="path21" />
      </g>
    </g>
  </g>
  <path
     style="opacity:0.96;fill:#ff0000;stroke-width:1.16895"
     d="M 128.58447,257.17342 V 34.447858 l 143.68043,0.310318 143.68042,0.310317 4.97869,3.506849 c 2.73828,1.928768 6.20264,5.825202 7.69858,8.658743 l 2.71988,5.151893 V 256.2214 c 0,223.50072 0.4809,208.1987 -6.78348,215.84643 -7.36673,7.75549 4.57511,7.1691 -153.07041,7.51636 l -142.90411,0.31479 z m 239.63471,102.2887 v -24.53788 l -63.24303,-0.3023 -63.24301,-0.30231 63.22999,-80.07305 63.23,-80.07306 0.013,-23.08676 0.013,-23.08676 h -96.43836 -96.43835 v 24.53752 24.53752 l 60.6257,0.30266 60.62571,0.30267 -60.5637,79.48858 -60.56369,79.48858 -0.062,23.67124 -0.062,23.67123 h 96.43835 96.43836 z"
     id="path903" />
</svg>
