<?xml version="1.0" encoding="UTF-8" standalone="no"?>
<svg
   width="64"
   height="64"
   version="1.1"
   viewBox="0 0 16.933 16.933"
   id="svg22"
   sodipodi:docname="preferences-desktop-user-password.svg"
   inkscape:version="1.1 (c68e22c387, 2021-05-23)"
   xmlns:inkscape="http://www.inkscape.org/namespaces/inkscape"
   xmlns:sodipodi="http://sodipodi.sourceforge.net/DTD/sodipodi-0.dtd"
   xmlns="http://www.w3.org/2000/svg"
   xmlns:svg="http://www.w3.org/2000/svg">
  <sodipodi:namedview
     id="namedview24"
     pagecolor="#ffffff"
     bordercolor="#666666"
     borderopacity="1.0"
     inkscape:pageshadow="2"
     inkscape:pageopacity="0.0"
     inkscape:pagecheckerboard="0"
     showgrid="false"
     inkscape:zoom="6.84375"
     inkscape:cx="32"
     inkscape:cy="32"
     inkscape:window-width="1366"
     inkscape:window-height="706"
     inkscape:window-x="0"
     inkscape:window-y="0"
     inkscape:window-maximized="1"
     inkscape:current-layer="svg22" />
  <defs
     id="defs8">
    <filter
       id="b"
       x="-0.035999999"
       y="-0.035999999"
       width="1.072"
       height="1.072"
       color-interpolation-filters="sRGB">
      <feGaussianBlur
         stdDeviation="0.214308"
         id="feGaussianBlur2" />
    </filter>
    <filter
       id="a"
       x="-0.060000003"
       y="-0.060000003"
       width="1.12"
       height="1.12"
       color-interpolation-filters="sRGB">
      <feGaussianBlur
         stdDeviation="0.27780001"
         id="feGaussianBlur5" />
    </filter>
  </defs>
  <g
     transform="translate(0 -280.07)"
     id="g20">
    <circle
       cx="8.4665"
       cy="288.86"
       r="7.1436"
       filter="url(#b)"
       opacity=".15"
       style="paint-order:stroke markers fill"
       id="circle10" />
    <circle
       cx="8.4665"
       cy="288.53"
       r="7.1436"
       fill="#71aa75"
       style="paint-order:stroke markers fill"
       id="circle12" />
    <circle
       cx="8.467"
       cy="288.53"
       r="5.556"
       filter="url(#a)"
       opacity=".1"
       paint-order="stroke markers fill"
       id="circle14" />
    <circle
       cx="8.467"
       cy="288.53"
       r="5.556"
       fill="#8bc891"
       paint-order="stroke markers fill"
       id="circle16" />
    <path
       d="M8.467 285.358a1.588 1.588 0 0 0-.624 3.048l-.964 3.302h3.175l-.964-3.302a1.588 1.588 0 0 0-.624-3.047z"
       fill="#fff"
       overflow="visible"
       id="path18" />
  </g>
  <path
     style="opacity:0.284981;fill:#32cd32;stroke-width:0.146119"
     d="M 30.292281,52.816302 C 25.481205,52.42094 21.10659,50.446061 17.585634,47.080006 14.531356,44.160096 12.553306,40.701344 11.580818,36.580182 11.22833,35.086426 11.189047,34.640415 11.18385,32.073059 c -0.0065,-3.186776 0.144936,-4.192673 1.033569,-6.86758 2.351137,-7.077245 8.556008,-12.420345 16.056554,-13.826518 1.950965,-0.36576 5.588521,-0.36727 7.452054,-0.0031 3.028017,0.591741 5.383791,1.557352 7.919957,3.246319 3.785794,2.521162 6.726459,6.346418 8.135905,10.583294 0.889544,2.674021 1.040825,3.679441 1.033332,6.86758 -0.006,2.562676 -0.04596,3.016089 -0.396966,4.507123 -0.967803,4.111059 -2.915234,7.520909 -5.997638,10.501551 -4.275441,4.134292 -10.156423,6.225327 -16.128336,5.734569 z M 37.9913,43.872146 c 2.92e-4,-0.100457 -0.795774,-2.909092 -1.768915,-6.241411 -1.013701,-3.471207 -1.705749,-6.079964 -1.620428,-6.108404 0.557387,-0.185796 1.842802,-1.33055 2.354545,-2.096892 0.816427,-1.222609 1.074726,-2.183912 1.0119,-3.765942 -0.04464,-1.123995 -0.115488,-1.405219 -0.601803,-2.388702 C 36.71559,21.954253 35.875085,21.138394 34.484018,20.472746 33.607551,20.053342 33.415831,20.018265 32,20.018265 c -1.371938,0 -1.625914,0.04293 -2.40075,0.405793 -2.355061,1.1029 -3.619058,3.057995 -3.612011,5.586899 0.0056,1.990729 0.848299,3.695863 2.386205,4.828006 0.466727,0.343585 0.921314,0.648939 1.010191,0.678565 0.102369,0.03412 -0.486403,2.276744 -1.606454,6.118949 -0.972426,3.335796 -1.768049,6.144561 -1.768049,6.241701 0,0.135205 1.404695,0.176617 5.990868,0.176617 4.69505,0 5.990961,-0.03951 5.9913,-0.182649 z"
     id="path81"
     transform="scale(0.26457812)" />
  <path
     style="opacity:0.284981;fill:#32cd32;stroke-width:0.146119"
     d="M 29.696896,58.794867 C 20.75673,58.059277 12.562809,52.653561 8.2927747,44.674081 6.9203881,42.109481 6.0068224,39.495473 5.4604444,36.569864 5.1015347,34.648064 5.0303411,30.434132 5.3227556,28.420091 5.9537567,24.073993 7.2912156,20.550324 9.6310496,17.06946 12.279353,13.129701 15.563679,10.196399 19.726027,8.0534174 28.394423,3.5905019 38.667552,4.1500956 46.83105,9.5298711 53.503984,13.927359 57.799847,20.967227 58.75374,29.06824 c 0.21156,1.796691 0.09473,5.827501 -0.21776,7.513149 -0.99205,5.351322 -3.358761,10.029446 -7.010281,13.856766 -4.768833,4.998424 -10.671794,7.81525 -17.537786,8.368829 -2.065274,0.166517 -2.121889,0.166357 -4.291017,-0.01211 z m 5.956072,-5.048238 c 5.229886,-0.852225 10.18668,-3.744681 13.489132,-7.871363 3.29138,-4.112849 4.921827,-8.724099 4.921827,-13.919975 0,-4.814456 -1.460533,-9.252057 -4.318901,-13.122312 -3.249063,-4.399256 -7.926532,-7.359559 -13.507583,-8.548755 -2.196737,-0.4680751 -6.268265,-0.4709832 -8.438215,-0.006 -8.552373,1.832521 -15.121123,8.031999 -17.185837,16.219708 -0.57683,2.287448 -0.7254513,3.771117 -0.6316541,6.305748 0.1595861,4.312402 1.3288741,7.96288 3.6655531,11.443733 4.866158,7.248912 13.347575,10.910105 22.005678,9.499243 z"
     id="path194"
     transform="scale(0.26457812)" />
</svg>
